<?xml version="1.0" encoding="UTF-8"?>
<svg width="121px" height="121px" viewBox="0 0 121 121" version="1.1" xmlns="http://www.w3.org/2000/svg" xmlns:xlink="http://www.w3.org/1999/xlink">
    <!-- Generator: Sketch 50.2 (55047) - http://www.bohemiancoding.com/sketch -->
    <title>DI-logo--white-vector</title>
    <desc>Created with Sketch.</desc>
    <defs></defs>
    <g id="Page-1" stroke="none" stroke-width="1" fill="none" fill-rule="evenodd">
        <g id="DI-logo--white-vector" transform="translate(-1.000000, -1.000000)" fill-rule="nonzero">
            <path d="M71.61,57.31 C73.6635891,63.0262391 70.6954346,69.3250731 64.9797708,71.3802627 C59.2641069,73.4354524 52.9644421,70.4690619 50.9076519,64.7539738 C48.8508618,59.0388857 51.8154881,52.7383904 57.53,50.68 C60.2762553,49.6907877 63.3030814,49.8336778 65.9439337,51.0772041 C68.584786,52.3207305 70.6230951,54.5629147 71.61,57.31" id="Shape" fill="#1D5480"></path>
            <path d="M8,65.46 C6.24981848,43.9658027 17.5612802,23.5184635 36.7,13.58 L34.46,7.35 C12.135638,18.5052771 -1.05205503,42.2200928 1.25,67.07 L8,65.46 Z" id="Shape" fill="#F68A39"></path>
            <path d="M50.26,8.75 C53.8765834,7.9844534 57.5632803,7.599026 61.26,7.6 C74.1746398,7.63181605 86.645742,12.3142481 96.39,20.79 L100.89,16.16 C96.6865895,12.3432182 91.9419539,9.16889519 86.81,6.74 C74.7164722,1.00874777 61.0457561,-0.484780615 48,2.5 L50.26,8.75 Z" id="Shape" fill="#F68A39"></path>
            <path d="M117.72,40.71 C115.818633,35.412164 113.120998,30.4350274 109.72,25.95 L104.52,29.74 C113.591909,42.295563 116.769584,58.1697129 113.229774,73.2498802 C109.689964,88.3300474 99.7809886,101.132331 86.07,108.34 L88.31,114.58 C115.343504,100.90102 127.93749,69.2144463 117.67,40.71" id="Shape" fill="#F68A39"></path>
            <path d="M72.59,113.27 C49.9152597,118.199044 26.6498786,107.937876 15,87.87 L9,90.85 C15.2,101.9 24.09,109.85 35.75,115.33 C47.9448971,121.111387 61.7421563,122.578205 74.88,119.49 L72.59,113.27 Z" id="Shape" fill="#F68A39"></path>
            <path d="M25,47.2 C28.1593095,38.9166543 34.0552766,31.9621652 41.71,27.49 L39.45,21.21 C29.7702137,26.5259226 22.3581949,35.1857201 18.6,45.57 L25,47.2 Z" id="Shape" fill="#F68A39"></path>
            <path d="M104,45.66 C96.4685253,24.7248428 74.8755048,12.3321427 53,16.39 L55.25,22.67 C57.234162,22.3516033 59.2404543,22.1910999 61.25,22.19 C78.7313526,22.2021757 94.0516567,33.8886413 98.684077,50.7450501 C103.316497,67.601459 96.120022,85.4759084 81.1,94.42 L83.36,100.69 C102.761008,89.8682478 111.481524,66.5966119 103.97,45.69" id="Shape" fill="#F68A39"></path>
            <path d="M67.58,99.35 C65.5045657,99.6960361 63.4040838,99.8699614 61.3,99.87 C44.9152536,99.8680127 30.2882865,89.5995459 24.72,74.19 C22.967928,69.3509618 22.2061811,64.2091702 22.48,59.07 L15.77,58.36 C15.3535489,64.5104703 16.2993669,70.677067 18.54,76.42 C25.0571729,94.4240994 42.1526468,106.418118 61.3,106.42 C64.1632909,106.415886 67.0196268,106.137955 69.83,105.59 L67.58,99.35 Z" id="Shape" fill="#F68A39"></path>
            <path d="M84.1,69.37 C83.85,70.05 83.57,70.73 83.26,71.37 C81.6145061,74.9084511 79.1373786,77.9962832 76.04,80.37 L78.35,86.78 C84.49,82.7 88.17,77.3 90.68,70.43 L84.1,69.37 Z" id="Shape" fill="#F68A39"></path>
            <path d="M60.34,36.73 L61.27,36.73 C71.5093238,36.7522896 80.6426796,43.172807 84.13,52.8 C84.35,53.39 84.53,53.98 84.69,54.58 L91.51,54.34 C91.216852,53.0562255 90.8188497,51.7986721 90.32,50.58 C85.4987032,37.1877889 72.1553531,28.8192955 58,30.31 L60.34,36.73 Z" id="Shape" fill="#F68A39"></path>
            <path d="M62.53,85.32 C62.11,85.32 61.7,85.32 61.28,85.32 C50.8051374,85.3157649 41.510819,78.6023196 38.214725,68.6595569 C34.9186311,58.7167942 38.3620111,47.7807146 46.76,41.52 L44.46,35.13 C32.9668636,42.572463 27.7471344,56.6946126 31.6370706,69.8228583 C35.5270067,82.951104 47.597592,91.9500847 61.29,91.93 C62.4732933,91.9261514 63.6553354,91.8526912 64.83,91.71 L62.53,85.32 Z" id="Shape" fill="#F68A39"></path>
        </g>
    </g>
</svg>