<?xml version="1.0" encoding="UTF-8"?>
<svg width="327px" height="80px" viewBox="0 0 327 80" version="1.1" xmlns="http://www.w3.org/2000/svg" xmlns:xlink="http://www.w3.org/1999/xlink">
    <!-- Generator: Sketch 50.2 (55047) - http://www.bohemiancoding.com/sketch -->
    <title>DI-logo--white-vector</title>
    <desc>Created with Sketch.</desc>
    <defs></defs>
    <g id="Page-1" stroke="none" stroke-width="1" fill="none" fill-rule="evenodd">
        <g id="DI-logo--white-vector" fill="#FFFFFF" fill-rule="nonzero">
            <path d="M16.92,30.07 C24.92,30.07 28.52,25.6 28.52,18.24 C28.52,10.88 25,6.36 16.92,6.36 L11.85,6.36 L11.85,30.07 L16.92,30.07 Z M0.8,30.07 L5.37,30.07 L5.37,6.36 L0.8,6.36 L0.8,1.23 L16.92,1.23 C29.25,1.23 35.15,8.15 35.15,18.23 C35.15,28.31 29.25,35.23 16.92,35.23 L0.8,35.23 L0.8,30.07 Z" id="Shape"></path>
            <polygon id="Shape" points="38.86 30.07 43.42 30.07 43.42 6.36 38.86 6.36 38.86 1.23 54.47 1.23 54.47 6.36 49.9 6.36 49.9 30.07 54.47 30.07 54.47 35.2 38.86 35.2"></polygon>
            <path d="M80.86,20.3 L75.86,7.48 L70.86,20.3 L80.86,20.3 Z M56.77,30.07 L60.77,30.07 L70.36,6.36 L65.73,6.36 L65.73,1.23 L79.62,1.23 L91.27,30.07 L95.35,30.07 L95.35,35.2 L80.14,35.2 L80.14,30.07 L84.6,30.07 L82.82,25.43 L68.87,25.43 L67.09,30.07 L71.55,30.07 L71.55,35.2 L56.77,35.2 L56.77,30.07 Z" id="Shape"></path>
            <path d="M95.89,18.41 C95.89,7.64 102.58,0.56 114.4,0.56 C119.031396,0.547208861 123.606806,1.57231941 127.79,3.56 L127.79,12.32 L121.7,12.32 L121.7,7.09 C119.394219,6.34976289 116.991429,5.9554762 114.57,5.92 C106.82,5.92 102.41,10.61 102.41,18.3 C102.41,26.5 107.41,30.4 114.68,30.4 C117.063923,30.3651405 119.426994,29.9499151 121.68,29.17 L121.68,22 L114.6,22 L114.6,17 L130.5,17 L130.5,22 L127.71,22 L127.71,32.6 C123.593667,34.7940408 118.994418,35.9249472 114.33,35.89 C103.23,35.89 95.87,29.7 95.87,18.43" id="Shape"></path>
            <polygon id="Shape" points="134.11 30.07 138.68 30.07 138.68 6.36 134.11 6.36 134.11 1.23 145.32 1.23 161.6 24.71 161.6 6.36 157.04 6.36 157.04 1.23 172.31 1.23 172.31 6.36 167.74 6.36 167.74 35.2 161.99 35.2 144.82 10.66 144.82 30.07 149.39 30.07 149.39 35.2 134.11 35.2"></polygon>
            <path d="M203.9,18.24 C203.9,10.66 199.16,5.97 192.9,5.97 C186.64,5.97 181.9,10.66 181.9,18.24 C181.9,25.82 186.58,30.46 192.9,30.46 C199.22,30.46 203.9,25.88 203.9,18.24 M175.18,18.24 C175.18,7.82 182.54,0.56 192.86,0.56 C203.18,0.56 210.54,7.82 210.54,18.24 C210.54,28.66 203.12,35.87 192.86,35.87 C182.6,35.87 175.18,28.67 175.18,18.24" id="Shape"></path>
            <path d="M214.74,34 L214.74,25.55 L220.54,25.55 L220.54,30 C222.458618,30.4686543 224.425041,30.7136183 226.4,30.73 C230.02,30.73 233.4,29.83 233.4,26.49 C233.4,18.73 215.16,22.92 215.16,10.42 C215.16,3.28 221.16,0.55 227.87,0.55 C231.548977,0.612479207 235.197173,1.23287477 238.69,2.39 L238.69,10.7 L232.78,10.7 L232.78,6.14 C231.21327,5.87323065 229.62894,5.72281957 228.04,5.69 C224.75,5.69 221.41,6.64 221.41,9.77 C221.41,17.02 239.64,13.11 239.64,26.05 C239.64,33.47 233.56,35.87 226.76,35.87 C222.691471,35.7455747 218.65404,35.1174552 214.74,34" id="Shape"></path>
            <polygon id="Shape" points="250.06 30.07 255.09 30.07 255.09 6.36 248.73 6.36 248.73 11.55 242.87 11.55 242.87 1.23 273.77 1.23 273.77 11.55 267.91 11.55 267.91 6.36 261.55 6.36 261.55 30.07 266.58 30.07 266.58 35.2 250.06 35.2"></polygon>
            <polygon id="Shape" points="277.01 30.07 281.59 30.07 281.59 6.36 277.01 6.36 277.01 1.23 292.63 1.23 292.63 6.36 288.06 6.36 288.06 30.07 292.63 30.07 292.63 35.2 277.01 35.2"></polygon>
            <path d="M296.21,18.41 C296.21,7.14 303.74,0.56 314.34,0.56 C318.700415,0.611450801 323.005885,1.53988156 327,3.29 L327,13.06 L320.81,13.06 L320.81,6.81 C318.809455,6.27664084 316.750279,5.99446996 314.68,5.97 C307.68,5.97 302.91,10.27 302.91,18.07 C302.91,26.07 308.04,30.29 315.07,30.29 C319.291504,30.1703675 323.406697,28.9389141 327,26.72 L327,32.91 C323.146836,34.8837227 318.879255,35.9120555 314.55,35.91 C303.4,35.91 296.26,29.38 296.26,18.45" id="Shape"></path>
            <polygon id="Shape" points="3.77 79.69 3.77 46.58 8 46.58 8 79.69"></polygon>
            <polygon id="Shape" points="20.09 54.42 20.09 79.69 15.89 79.69 15.89 46.58 19.16 46.58 39.68 72.37 39.68 46.63 43.87 46.63 43.87 79.69 40.33 79.69"></polygon>
            <polygon id="Shape" points="75.68 50.31 64.25 50.31 64.25 79.69 60.05 79.69 60.05 50.31 48.63 50.31 48.63 46.58 75.68 46.58"></polygon>
            <polygon id="Shape" points="102.91 76 102.91 79.73 80.43 79.73 80.43 46.58 102.49 46.58 102.49 50.31 84.63 50.31 84.63 61 100.16 61 100.16 64.5 84.63 64.5 84.63 76"></polygon>
            <polygon id="Shape" points="108.65 79.69 108.65 46.58 112.85 46.58 112.85 76 131.31 76 131.31 79.73"></polygon>
            <polygon id="Shape" points="135.88 79.69 135.88 46.58 140.08 46.58 140.08 76 158.55 76 158.55 79.73"></polygon>
            <polygon id="Shape" points="163.12 79.69 163.12 46.58 167.32 46.58 167.32 79.69"></polygon>
            <path d="M198.61,75.22 C194.616716,79.9347097 187.905458,81.2844136 182.4,78.48 C180.547291,77.5384735 178.893716,76.24821 177.53,74.68 C176.145749,73.0847109 175.049422,71.2608821 174.29,69.29 C173.494084,67.2889165 173.090093,65.1535365 173.1,63 C173.090414,60.8265402 173.483722,58.6701262 174.26,56.64 C175.004577,54.6874096 176.095388,52.8852009 177.48,51.32 C178.848103,49.780193 180.515269,48.5349226 182.38,47.66 C184.302592,46.7538209 186.404627,46.2923987 188.53,46.31 C191.304521,46.1984264 194.051945,46.8930974 196.44,48.31 C198.458845,49.5956088 200.09304,51.4025521 201.17,53.54 L198,55.82 C197.12291,54.0240691 195.730251,52.530443 194,51.53 C192.305956,50.5817525 190.391129,50.0987329 188.45,50.13 C186.859667,50.107111 185.2888,50.4817818 183.88,51.22 C182.531106,51.9385347 181.340767,52.9214151 180.38,54.11 C179.39473,55.349015 178.63946,56.7545617 178.15,58.26 C177.618212,59.8319605 177.347955,61.480526 177.35,63.14 C177.342258,64.8467398 177.643794,66.540763 178.24,68.14 C178.799505,69.6533907 179.618418,71.0577239 180.66,72.29 C181.664925,73.4719603 182.90445,74.4322513 184.3,75.11 C185.72505,75.7935768 187.289693,76.1359495 188.87,76.11 C192.483333,76.11 195.733333,74.37 198.62,70.89 L198.62,66.36 L191.48,66.36 L191.48,63.18 L202.16,63.18 L202.16,79.69 L198.62,79.69 L198.61,75.22 Z" id="Shape"></path>
            <polygon id="Shape" points="231 76 231 79.73 208.54 79.73 208.54 46.58 230.6 46.58 230.6 50.31 212.74 50.31 212.74 61 228.27 61 228.27 64.5 212.74 64.5 212.74 76"></polygon>
            <polygon id="Shape" points="241 54.42 241 79.69 236.81 79.69 236.81 46.58 240 46.58 260.52 72.37 260.52 46.63 264.72 46.63 264.72 79.69 261.17 79.69"></polygon>
            <path d="M270.52,62.9 C270.530736,60.8878233 270.885866,58.8923347 271.57,57 C272.251507,55.0480812 273.296597,53.242926 274.65,51.68 C276.040298,50.0858388 277.741793,48.7927021 279.65,47.88 C281.733179,46.8939487 284.015564,46.4012 286.32,46.44 C288.993171,46.3600215 291.632462,47.0545719 293.92,48.44 C295.95964,49.6904661 297.595072,51.5029838 298.63,53.66 L295.32,55.81 C294.878858,54.8280392 294.273517,53.9284829 293.53,53.15 C292.862127,52.4595139 292.089245,51.8790085 291.24,51.43 C290.441133,51.0001453 289.586238,50.6837666 288.7,50.49 C287.858369,50.3100978 287.00062,50.2162815 286.14,50.21 C284.442302,50.1749122 282.763393,50.5705568 281.26,51.36 C279.874859,52.1016465 278.659114,53.1232813 277.69,54.36 C276.723642,55.6004822 275.991662,57.0068323 275.53,58.51 C275.048193,60.0096122 274.801931,61.57489 274.8,63.15 C274.788265,64.8553158 275.082944,66.5488738 275.67,68.15 C276.212861,69.6729527 277.025867,71.0855492 278.07,72.32 C279.07575,73.5192294 280.313976,74.5023266 281.71,75.21 C283.123436,75.9346647 284.691697,76.3052823 286.28,76.29 C287.183199,76.2857174 288.082742,76.1749527 288.96,75.96 C289.882036,75.7365301 290.76758,75.382986 291.59,74.91 C292.445551,74.3803428 293.225894,73.7379052 293.91,73 C294.661493,72.2393621 295.26807,71.3481346 295.7,70.37 L299.2,72.28 C298.684463,73.5076169 297.937555,74.6245836 297,75.57 C296.047195,76.5158246 294.966717,77.3236585 293.79,77.97 C292.589493,78.6211879 291.313169,79.1216413 289.99,79.46 C288.709576,79.7920944 287.392773,79.9634131 286.07,79.97 C283.895744,79.9956889 281.748812,79.4838604 279.82,78.48 C277.94664,77.5094109 276.276546,76.1889501 274.9,74.59 C272.107137,71.3332164 270.561942,67.1902494 270.54,62.9 L270.52,62.9 Z" id="Shape"></path>
            <polygon id="Shape" points="327 76 327 79.73 304.47 79.73 304.47 46.58 326.53 46.58 326.53 50.31 308.67 50.31 308.67 61 324.2 61 324.2 64.5 308.67 64.5 308.67 76"></polygon>
        </g>
    </g>
</svg>