<svg xmlns="http://www.w3.org/2000/svg" viewBox="0 0 464 120.07"><defs><style>.cls-1{fill:#fff;}.cls-2{fill:#f68a39;}</style></defs><title>Asset 1a</title><g id="Layer_2" data-name="Layer 2"><g id="Layer_1-2" data-name="Layer 1"><path class="cls-1" d="M153.92,51.07c8,0,11.6-4.47,11.6-11.83S162,27.36,153.92,27.36h-5.07V51.07Zm-16.12,0h4.57V27.36H137.8V22.23h16.12c12.33,0,18.23,6.92,18.23,17s-5.9,17-18.23,17H137.8Z"/><polygon class="cls-1" points="175.86 51.07 180.42 51.07 180.42 27.36 175.86 27.36 175.86 22.23 191.47 22.23 191.47 27.36 186.9 27.36 186.9 51.07 191.47 51.07 191.47 56.2 175.86 56.2 175.86 51.07"/><path class="cls-1" d="M217.86,41.3l-5-12.82-5,12.82Zm-24.09,9.77h4l9.59-23.71h-4.63V22.23h13.89l11.65,28.84h4.08V56.2H217.14V51.07h4.46l-1.78-4.64H205.87l-1.78,4.64h4.46V56.2H193.77Z"/><path class="cls-1" d="M232.89,39.41c0-10.77,6.69-17.85,18.51-17.85a31,31,0,0,1,13.39,3v8.76H258.7V28.09a24.5,24.5,0,0,0-7.13-1.17c-7.75,0-12.16,4.69-12.16,12.38,0,8.2,5,12.1,12.27,12.1a22.4,22.4,0,0,0,7-1.23V43h-7.08V38h15.9v5h-2.79v10.6a28,28,0,0,1-13.38,3.29c-11.1,0-18.46-6.19-18.46-17.46"/><polygon class="cls-1" points="271.11 51.07 275.68 51.07 275.68 27.36 271.11 27.36 271.11 22.23 282.32 22.23 298.6 45.71 298.6 27.36 294.04 27.36 294.04 22.23 309.31 22.23 309.31 27.36 304.74 27.36 304.74 56.2 298.99 56.2 281.82 31.66 281.82 51.07 286.39 51.07 286.39 56.2 271.11 56.2 271.11 51.07"/><path class="cls-1" d="M340.9,39.24c0-7.58-4.74-12.27-11-12.27s-11,4.69-11,12.27,4.68,12.22,11,12.22,11-4.58,11-12.22m-28.72,0c0-10.42,7.36-17.68,17.68-17.68s17.68,7.26,17.68,17.68-7.42,17.63-17.68,17.63-17.68-7.2-17.68-17.63"/><path class="cls-1" d="M351.74,55V46.55h5.8V51a25.59,25.59,0,0,0,5.86.73c3.62,0,7-.9,7-4.24,0-7.76-18.24-3.57-18.24-16.07,0-7.14,6-9.87,12.71-9.87a36.37,36.37,0,0,1,10.82,1.84v8.31h-5.91V27.14a32.2,32.2,0,0,0-4.74-.45c-3.29,0-6.63.95-6.63,4.08,0,7.25,18.23,3.34,18.23,16.28,0,7.42-6.08,9.82-12.88,9.82A49.27,49.27,0,0,1,351.74,55"/><polygon class="cls-1" points="387.06 51.07 392.09 51.07 392.09 27.36 385.73 27.36 385.73 32.55 379.87 32.55 379.87 22.23 410.77 22.23 410.77 32.55 404.91 32.55 404.91 27.36 398.55 27.36 398.55 51.07 403.58 51.07 403.58 56.2 387.06 56.2 387.06 51.07"/><polygon class="cls-1" points="414.01 51.07 418.59 51.07 418.59 27.36 414.01 27.36 414.01 22.23 429.63 22.23 429.63 27.36 425.06 27.36 425.06 51.07 429.63 51.07 429.63 56.2 414.01 56.2 414.01 51.07"/><path class="cls-1" d="M433.21,39.41c0-11.27,7.53-17.85,18.13-17.85A32.5,32.5,0,0,1,464,24.29v9.77h-6.19V27.81a24.94,24.94,0,0,0-6.13-.84c-7,0-11.77,4.3-11.77,12.1,0,8,5.13,12.22,12.16,12.22A24,24,0,0,0,464,47.72v6.19a27.28,27.28,0,0,1-12.45,3c-11.15,0-18.29-6.53-18.29-17.46"/><path class="cls-1" d="M70.61,56.31a11,11,0,1,1-14.08-6.63,11,11,0,0,1,14.08,6.63"/><path class="cls-2" d="M7,64.46A53.56,53.56,0,0,1,35.7,12.58L33.46,6.35A60.52,60.52,0,0,0,.25,66.07Z"/><path class="cls-2" d="M49.26,7.75a53.05,53.05,0,0,1,11-1.15A53.73,53.73,0,0,1,95.39,19.79l4.5-4.63A57.6,57.6,0,0,0,85.81,5.74,59.59,59.59,0,0,0,47,1.5Z"/><path class="cls-2" d="M116.72,39.71a55.4,55.4,0,0,0-8-14.76l-5.2,3.79a53.44,53.44,0,0,1-18.45,78.6l2.24,6.24a60,60,0,0,0,29.36-73.87"/><path class="cls-2" d="M71.59,112.27A53.46,53.46,0,0,1,14,86.87L8,89.85c6.2,11.05,15.09,19,26.75,24.48a59.54,59.54,0,0,0,39.13,4.16Z"/><path class="cls-2" d="M24,46.2A38.87,38.87,0,0,1,40.71,26.49l-2.26-6.28A45.43,45.43,0,0,0,17.6,44.57Z"/><path class="cls-2" d="M103,44.66A45.4,45.4,0,0,0,52,15.39l2.25,6.28a38,38,0,0,1,6-.48A38.85,38.85,0,0,1,80.1,93.42l2.26,6.27a45.4,45.4,0,0,0,20.61-55"/><path class="cls-2" d="M66.58,98.35a38.19,38.19,0,0,1-6.28.52A38.9,38.9,0,0,1,23.72,73.19a38.41,38.41,0,0,1-2.24-15.12l-6.71-.71a41.9,41.9,0,0,0,2.77,18.06,45.48,45.48,0,0,0,42.76,30,44.91,44.91,0,0,0,8.53-.83Z"/><path class="cls-2" d="M83.1,68.37c-.25.68-.53,1.36-.84,2a24.19,24.19,0,0,1-7.22,9l2.31,6.41c6.14-4.08,9.82-9.48,12.33-16.35Z"/><path class="cls-2" d="M59.34,35.73l.93,0A24.37,24.37,0,0,1,83.13,51.8c.22.59.4,1.18.56,1.78l6.82-.24a24.07,24.07,0,0,0-1.19-3.76A30.91,30.91,0,0,0,57,29.31Z"/><path class="cls-2" d="M61.53,84.32c-.42,0-.83,0-1.25,0A24.31,24.31,0,0,1,45.76,40.52l-2.3-6.39a30.88,30.88,0,0,0,16.83,56.8,30.17,30.17,0,0,0,3.54-.22Z"/><path class="cls-1" d="M140.77,100.69V67.58H145v33.11Z"/><path class="cls-1" d="M157.09,75.42v25.27h-4.2V67.58h3.27l20.52,25.79V67.63h4.19v33.06h-3.54Z"/><path class="cls-1" d="M212.68,71.31H201.25v29.38h-4.2V71.31H185.63V67.58h27.05Z"/><path class="cls-1" d="M239.91,97v3.73H217.43V67.58h22.06v3.73H221.63V82h15.53v3.5H221.63V97Z"/><path class="cls-1" d="M245.65,100.69V67.58h4.2V97h18.46v3.73Z"/><path class="cls-1" d="M272.88,100.69V67.58h4.2V97h18.47v3.73Z"/><path class="cls-1" d="M300.12,100.69V67.58h4.2v33.11Z"/><path class="cls-1" d="M335.61,96.22a13.32,13.32,0,0,1-16.21,3.26,16.15,16.15,0,0,1-4.87-3.8,18.22,18.22,0,0,1-3.24-5.39A16.81,16.81,0,0,1,310.1,84a17.59,17.59,0,0,1,1.16-6.36,17.37,17.37,0,0,1,3.22-5.32,15.18,15.18,0,0,1,4.9-3.66,14.15,14.15,0,0,1,6.15-1.35,14.37,14.37,0,0,1,7.91,2,13.29,13.29,0,0,1,4.73,5.23L335,76.82a10.05,10.05,0,0,0-4-4.29,11,11,0,0,0-5.55-1.4,9.55,9.55,0,0,0-4.57,1.09,11.38,11.38,0,0,0-3.5,2.89,13.25,13.25,0,0,0-2.23,4.15,15.17,15.17,0,0,0-.8,4.88,14.13,14.13,0,0,0,.89,5,13.89,13.89,0,0,0,2.42,4.15,11.2,11.2,0,0,0,3.64,2.82,10.18,10.18,0,0,0,4.57,1q5.42,0,9.75-5.22V87.36h-7.14V84.18h10.68v16.51h-3.54Z"/><path class="cls-1" d="M368,97v3.73H345.54V67.58H367.6v3.73H349.74V82h15.53v3.5H349.74V97Z"/><path class="cls-1" d="M378,75.42v25.27h-4.19V67.58H377l20.52,25.79V67.63h4.2v33.06h-3.55Z"/><path class="cls-1" d="M407.52,83.9A17.63,17.63,0,0,1,408.57,78a16.37,16.37,0,0,1,3.08-5.32,15.52,15.52,0,0,1,5-3.8,15,15,0,0,1,6.67-1.44,13.87,13.87,0,0,1,7.6,2,12.43,12.43,0,0,1,4.71,5.22l-3.31,2.15a9.47,9.47,0,0,0-1.79-2.66,9.11,9.11,0,0,0-2.29-1.72,9.76,9.76,0,0,0-2.54-.94,12.69,12.69,0,0,0-2.56-.28,10.05,10.05,0,0,0-4.88,1.15,11.33,11.33,0,0,0-3.57,3,12.93,12.93,0,0,0-2.16,4.15,15.23,15.23,0,0,0-.73,4.64,14.24,14.24,0,0,0,.87,5,13.45,13.45,0,0,0,2.4,4.17,11.59,11.59,0,0,0,3.64,2.89,9.81,9.81,0,0,0,4.57,1.08,11.49,11.49,0,0,0,2.68-.33,10,10,0,0,0,2.63-1.05A11.21,11.21,0,0,0,430.91,94a8.8,8.8,0,0,0,1.79-2.63l3.5,1.91A10.38,10.38,0,0,1,434,96.57a14.39,14.39,0,0,1-3.21,2.4,16.59,16.59,0,0,1-3.8,1.49,15.93,15.93,0,0,1-3.92.51,13.2,13.2,0,0,1-6.25-1.49,16.52,16.52,0,0,1-4.92-3.89,18.1,18.1,0,0,1-4.36-11.69Z"/><path class="cls-1" d="M464,97v3.73H441.47V67.58h22.06v3.73H445.67V82H461.2v3.5H445.67V97Z"/></g></g></svg>