<?xml version="1.0" encoding="UTF-8"?>
<svg width="661px" height="171px" viewBox="0 0 661 171" version="1.1" xmlns="http://www.w3.org/2000/svg" xmlns:xlink="http://www.w3.org/1999/xlink">
    <!-- Generator: Sketch 49 (51002) - http://www.bohemiancoding.com/sketch -->
    <title>Page 1 Copy 2</title>
    <desc>Created with Sketch.</desc>
    <defs></defs>
    <g id="Symbols" stroke="none" stroke-width="1" fill="none" fill-rule="evenodd">
        <g id="Page-1-Copy-2">
            <g>
                <path d="M198,72.7487867 L204.384642,72.7487867 L204.384642,39.2512133 L198,39.2512133 L198,32 L220.529082,32 C237.752257,32 246,41.7730529 246,56.038826 C246,70.2195517 237.752257,80 220.529082,80 L198,80 L198,72.7487867 Z M220.529082,72.7487867 C231.747915,72.7487867 236.735687,66.4404899 236.735687,56.038826 C236.735687,45.5521146 231.747915,39.2512133 220.529082,39.2512133 L213.433208,39.2512133 L213.433208,72.7487867 L220.529082,72.7487867 Z" id="Fill-1" fill="#1D5480"></path>
                <polygon id="Fill-3" fill="#1D5480" points="251 72.7487867 257.145311 72.7487867 257.145311 39.2512133 251 39.2512133 251 32 272 32 272 39.2512133 265.854689 39.2512133 265.854689 72.7487867 272 72.7487867 272 80 251 80"></polygon>
                <path d="M275,72.7487867 L280.836892,72.7487867 L294.752424,39.2512133 L288.030981,39.2512133 L288.030981,32 L308.178225,32 L325.083384,72.7487867 L331,72.7487867 L331,80 L308.903329,80 L308.903329,72.7487867 L315.385601,72.7487867 L312.790794,66.2038364 L292.563826,66.2038364 L289.969019,72.7487867 L296.451291,72.7487867 L296.451291,80 L275,80 L275,72.7487867 Z M309.956816,58.9526231 L302.669717,40.8301364 L295.475629,58.9526231 L309.956816,58.9526231 Z" id="Fill-4" fill="#1D5480"></path>
                <path d="M332,54.7816322 C332,39.2275962 341.277921,29 357.66843,29 C365.247091,29 372.196464,31.169891 376.224271,33.3492328 L376.224271,45.9981099 L367.789633,45.9981099 L367.789633,38.426173 C365.007707,37.5340227 361.533021,36.7344897 357.895119,36.7344897 C347.157322,36.7344897 341.051232,43.5050033 341.051232,54.6171892 C341.051232,66.4665332 347.998791,72.1067378 358.058335,72.1067378 C361.456854,72.1067378 364.704851,71.3790305 367.789633,70.3299978 L367.789633,59.9379586 L357.969473,59.9379586 L357.969473,52.6892373 L380,52.6892373 L380,59.9379586 L376.135409,59.9379586 L376.135409,75.242495 C372.586368,77.3424505 365.938038,80 357.592262,80 C342.208251,80 332,71.0577051 332,54.7816322" id="Fill-5" fill="#1D5480"></path>
                <polygon id="Fill-7" fill="#1D5480" points="388 72.7487867 394.33887 72.7487867 394.33887 39.2512133 388 39.2512133 388 32 403.549474 32 426.142138 65.1758724 426.142138 39.2512133 419.805083 39.2512133 419.805083 32 441 32 441 39.2512133 434.66113 39.2512133 434.66113 80 426.684899 80 402.856047 45.3228565 402.856047 72.7487867 409.194917 72.7487867 409.194917 80 388 80"></polygon>
                <path d="M445,57.0404714 C445,41.6825291 455.61179,31 470.492451,31 C485.297624,31 496,41.6825291 496,57.0404714 C496,72.3984138 485.297624,83 470.492451,83 C455.61179,83 445,72.3984138 445,57.0404714 M486.42429,57.0404714 C486.42429,45.870358 479.585036,38.9670892 470.492451,38.9670892 C461.322491,38.9670892 454.57571,45.870358 454.57571,57.0404714 C454.57571,68.2915277 461.322491,75.0329108 470.492451,75.0329108 C479.585036,75.0329108 486.42429,68.2915277 486.42429,57.0404714" id="Fill-8" fill="#1D5480"></path>
                <path d="M502,80.2922689 L502,67.8039434 L510.365678,67.8039434 L510.365678,74.3795864 C512.137812,74.7804462 515.126633,75.4414795 518.82582,75.4414795 C524.059092,75.4414795 528.976856,74.1251946 528.976856,69.2011712 C528.976856,57.7766659 502.642351,63.9437403 502.642351,45.5350233 C502.642351,35.0201616 511.336762,31 521.004146,31 C526.562372,31 532.596694,32.3182121 536.622724,33.7096583 L536.622724,45.9513009 L528.085122,45.9513009 L528.085122,39.2137721 C526.471687,38.9670892 523.822934,38.5527389 521.238415,38.5527389 C516.490685,38.5527389 511.665495,39.9576755 511.665495,44.5598547 C511.665495,55.234675 538,49.4819509 538,68.5459195 C538,79.4693499 529.213015,83 519.390711,83 C512.950197,83 506.668381,81.5218294 502,80.2922689" id="Fill-10" fill="#1D5480"></path>
                <polygon id="Fill-13" fill="#1D5480" points="553.010755 72.7487867 559.998984 72.7487867 559.998984 39.2512133 551.151719 39.2512133 551.151719 46.5800786 543 46.5800786 543 32 586 32 586 46.5800786 577.84646 46.5800786 577.84646 39.2512133 568.999195 39.2512133 568.999195 72.7487867 575.989245 72.7487867 575.989245 80 553.010755 80"></polygon>
                <polygon id="Fill-14" fill="#1D5480" points="591 72.7487867 597.152777 72.7487867 597.152777 39.2512133 591 39.2512133 591 32 612 32 612 39.2512133 605.847223 39.2512133 605.847223 72.7487867 612 72.7487867 612 80 591 80"></polygon>
                <path d="M618,54.7816322 C618,38.5055593 628.516106,29 643.319055,29 C650.955337,29 658.032466,31.498777 661,32.9428508 L661,47.0471425 L652.349567,47.0471425 L652.349567,38.019791 C650.091025,37.3771403 646.741586,36.8119858 643.788671,36.8119858 C634.045512,36.8119858 627.348462,43.019235 627.348462,54.2958639 C627.348462,65.9013787 634.515128,71.9366244 644.333206,71.9366244 C650.789053,71.9366244 656.713157,69.3660218 660.923253,66.780298 L660.923253,75.7282633 C657.652388,77.501223 651.487081,80 643.54564,80 C627.969743,80 618,70.5719368 618,54.7816322" id="Fill-15" fill="#1D5480"></path>
                <polygon id="Fill-17" fill="#1D5480" points="201 147 206 147 206 99 201 99"></polygon>
                <polygon id="Fill-18" fill="#1D5480" points="219 147 219 99 224.926199 99 224.926199 141.591309 251 141.591309 251 147"></polygon>
                <polygon id="Fill-19" fill="#1D5480" points="257 147 257 99 262.928044 99 262.928044 141.591309 289 141.591309 289 147"></polygon>
                <path d="M313.965726,141.563411 C316.698347,141.563411 318.969663,141.025396 320.777824,139.951246 C322.58228,138.877097 324.027326,137.479385 325.107406,135.756231 C326.185633,134.033077 326.947061,132.06349 327.387986,129.847468 C327.827058,127.633328 328.04752,125.381565 328.04752,123.099702 L328.04752,99 L334,99 L334,123.099702 C334,126.324032 333.636886,129.377175 332.908805,132.264775 C332.182576,135.150494 331.024686,137.690077 329.436988,139.883524 C327.851142,142.076971 325.789171,143.811412 323.256635,145.086847 C320.720393,146.362282 317.645037,147 314.034274,147 C310.284563,147 307.13325,146.328421 304.578482,144.987145 C302.021861,143.642107 299.959891,141.86628 298.398129,139.648377 C296.830809,137.432356 295.708119,134.881486 295.026354,131.995767 C294.340883,129.108167 294,126.143439 294,123.099702 L294,99 L299.950628,99 L299.950628,123.099702 C299.950628,125.473742 300.180353,127.766891 300.645361,129.981032 C301.106665,132.197053 301.879209,134.155354 302.957436,135.855934 C304.039368,137.556514 305.471446,138.933532 307.257376,139.983226 C309.0396,141.036683 311.279422,141.563411 313.965726,141.563411" id="Fill-20" fill="#1D5480"></path>
                <polygon id="Fill-22" fill="#1D5480" points="386.863642 147 386.863642 109.881793 370.773851 138.346095 367.296836 138.346095 351.138269 109.881793 351.138269 147 345 147 345 99 351.480239 99 368.999045 130.165805 386.590448 99 393 99 393 147"></polygon>
                <polygon id="Fill-23" fill="#1D5480" points="404 147 409 147 409 99 404 99"></polygon>
                <polygon id="Fill-24" fill="#1D5480" points="429.000374 110.357304 429.000374 147 423 147 423 99 427.666542 99 457.001494 136.385326 457.001494 99.0663062 463 99.0663062 463 147 457.93555 147"></polygon>
                <path d="M487.045294,99 L492.01706,99 L511,147 L504.715145,147 L499.218877,132.937404 L479.715102,132.937404 L474.283021,147 L468,147 L487.045294,99 Z M497.909455,128.205036 L489.532094,106.030351 L480.894315,128.205036 L497.909455,128.205036 Z" id="Fill-25" fill="#1D5480"></path>
                <polygon id="Fill-26" fill="#1D5480" points="545 104.408477 529.370905 104.408477 529.370905 147 523.629095 147 523.629095 104.408477 508 104.408477 508 99 545 99"></polygon>
                <polygon id="Fill-27" fill="#1D5480" points="554 147 559 147 559 99 554 99"></polygon>
                <path d="M592.467016,144 C589.102618,144 586.041675,143.321891 583.284188,141.965674 C580.526702,140.611325 578.159372,138.810508 576.187853,136.566959 C574.21445,134.323409 572.689634,131.756684 571.615288,128.866783 C570.537173,125.978751 570,123.023468 570,119.999066 C570,116.845768 570.571099,113.825102 571.715183,110.933333 C572.859267,108.045301 574.440628,105.491652 576.457382,103.266783 C578.476021,101.045651 580.862199,99.2784588 583.621571,97.9670753 C586.379058,96.6575598 589.372147,96 592.600838,96 C595.963351,96 599.011099,96.7005254 601.747853,98.0997081 C604.482723,99.5007589 606.836859,101.335201 608.810262,103.601168 C610.783665,105.867134 612.308482,108.433859 613.386597,111.299475 C614.460942,114.166959 615,117.090485 615,120.068184 C615,123.223351 614.427016,126.245884 613.282932,129.133917 C612.140733,132.023818 610.568796,134.568126 608.57466,136.76871 C606.580524,138.967426 604.20377,140.723409 601.444398,142.034793 C598.688796,143.344308 595.693822,144 592.467016,144 M576.121885,119.999066 C576.121885,122.399533 576.512042,124.723409 577.29801,126.966959 C578.082094,129.210508 579.194136,131.201868 580.628482,132.933567 C582.060942,134.667134 583.789319,136.0439 585.806073,137.067601 C587.826597,138.089434 590.067644,138.601284 592.534869,138.601284 C595.088796,138.601284 597.375079,138.055809 599.393717,136.966725 C601.412356,135.87951 603.127539,134.456042 604.539267,132.700058 C605.95288,130.945943 607.02911,128.958319 607.769843,126.73345 C608.508691,124.512318 608.878115,122.268768 608.878115,119.999066 C608.878115,117.602335 608.486073,115.278459 607.70199,113.03491 C606.917906,110.79136 605.794555,108.811208 604.339476,107.100058 C602.880628,105.388908 601.152251,104.023351 599.158115,102.99965 C597.163979,101.977817 594.954974,101.465966 592.534869,101.465966 C589.979058,101.465966 587.689005,102.000234 585.674136,103.0669 C583.653613,104.133567 581.940314,105.53275 580.526702,107.268184 C579.114974,109.001751 578.02555,110.978167 577.265969,113.199299 C576.500733,115.424168 576.121885,117.690134 576.121885,119.999066" id="Fill-28" fill="#1D5480"></path>
                <polygon id="Fill-30" fill="#1D5480" points="621 99 621 147 627.000093 147 627.000093 110.356855 655.933919 147 661 147 661 99.068198 655.001775 99.068198 655.001775 136.38385 625.666324 99"></polygon>
                <path d="M100.079575,80.2518092 C102.978728,88.3030049 98.8012947,97.1812395 90.7484995,100.08048 C82.6957043,102.977879 73.819579,98.80032 70.9204254,90.7491243 C68.0212718,82.6960867 72.1987053,73.819694 80.2515005,70.9204531 C88.3024538,68.0212122 97.180421,72.1987715 100.079575,80.2518092" id="Fill-31" fill="#1D5480"></path>
                <path d="M9.99960479,91.7205206 C7.48754556,61.5136935 23.4458504,32.0424828 51,17.8627799 L47.7982459,9 C15.5564144,25.0047763 -2.83357873,58.9604531 0.35696078,94 L9.99960479,91.7205206 Z" id="Fill-33" fill="#F68938"></path>
                <path d="M70.1882516,10.9592573 C75.364057,9.87072317 80.5602761,9.3338611 85.7082447,9.3338611 C104.128841,9.3338611 121.890632,16.0853645 135.619785,28 L142,21.4428777 C135.927847,16.0390833 129.594027,11.679393 122.024249,8.12499581 C104.639184,-0.035307703 85.4428663,-2.07538358 67,2.12509933 L70.1882516,10.9592573 Z" id="Fill-35" fill="#F68938"></path>
                <path d="M165.913688,56.9848098 C163.044285,49.0090196 159.520293,42.6272715 154.616459,36 L147.231885,41.3829143 C151.300746,47.0113521 154.66109,53.2926588 157.128814,60.1487135 C164.001992,79.2400171 163.027548,99.865842 154.389585,118.228016 C147.25606,133.387225 135.592485,145.492272 121,153.125817 L124.192978,162 C141.121153,153.471782 154.638775,139.627611 162.837866,122.20289 C172.537675,101.586366 173.629276,78.4234658 165.913688,56.9848098" id="Fill-37" fill="#F68938"></path>
                <path d="M101.80549,159.947167 C85.4856695,163.493184 68.5366556,161.634071 53.1652929,154.460563 C38.9346932,147.818493 27.3926351,137.226735 19.6873498,124 L11,128.214483 C19.8423143,143.857694 32.5214015,155.099401 49.1754226,162.872863 C60.7604227,168.279844 73.1445171,171 85.5790216,171 C92.0763303,171 98.5848412,170.240801 105,168.750177 L101.80549,159.947167 Z" id="Fill-39" fill="#F68938"></path>
                <path d="M34.1465361,66 C38.5806543,54.4409929 46.8493321,44.4113886 58,37.937972 L54.7706022,29 C40.6426873,36.7047629 30.2690174,49.219414 25,63.6807472 L34.1465361,66 Z" id="Fill-41" fill="#F68938"></path>
                <path d="M146.166435,63.7247383 C140.348354,47.495397 128.586196,34.5115517 113.047844,27.1682446 C100.703878,21.3341676 87.149974,19.6276768 74,22.095296 L77.1980915,31.0204102 C80.0237516,30.5719214 82.8660878,30.3355808 85.7065712,30.3355808 C93.6925353,30.3355808 101.647,32.1053438 109.086361,35.6225386 C122.377155,41.9032434 132.436505,53.0093906 137.413373,66.8902136 C142.388388,80.7710366 141.684289,95.7665684 135.428926,109.11516 C130.681817,119.244308 123.166487,127.499481 113.779737,133.078608 L116.977828,142 C128.676988,135.481094 138.037798,125.491516 143.846614,113.09387 C151.158125,97.4860858 151.982662,79.9540797 146.166435,63.7247383" id="Fill-43" fill="#F68938"></path>
                <path d="M94.7910387,139.971702 C91.805439,140.462016 88.8161166,140.709948 85.8491304,140.709948 C63.2058509,140.706247 41.9176316,126.755442 33.8170518,104.391598 C31.2577005,97.3255333 30.2562961,90.0744449 30.626704,83.0065303 L21.0761354,82 C20.6796686,92.4205485 21.8076445,98.6577057 25.0240512,107.538855 C34.4945819,133.688289 59.3845066,150 85.8584371,150 C89.8845295,150 93.9478488,149.607749 98,148.828798 L94.7910387,139.971702 Z" id="Fill-45" fill="#F68938"></path>
                <path d="M118.560701,98 C118.202128,98.9782527 117.806008,99.9489804 117.357322,100.902777 C114.939299,106.051772 111.385482,110.429453 107,113.785612 L110.309762,123 C119.125782,117.130484 124.395494,109.370306 128,99.4974791 L118.560701,98 Z" id="Fill-47" fill="#F68938"></path>
                <path d="M84.3101508,51.4386948 C84.7565054,51.4218288 85.2047355,51.4087109 85.6510901,51.4087109 C90.7129015,51.4087109 95.7559584,52.5256125 100.470813,54.7425497 C108.893413,58.7041772 115.269907,65.7054262 118.422521,74.4588614 C118.726342,75.3002856 118.985153,76.1492058 119.221458,77 L129,76.6589327 C128.578026,74.5862932 128.021021,73.3213459 127.283973,71.2730683 C123.278034,60.1546501 115.17801,51.2606652 104.478628,46.228986 C97.04251,42.7321095 88.9668672,41.3978243 81,42.2486185 L84.3101508,51.4386948 Z" id="Fill-49" fill="#F68938"></path>
                <path d="M87.7275315,120.581005 C87.1340594,120.612725 86.5424477,120.63325 85.9526964,120.63325 C71.7800614,120.631384 58.4557752,111.822533 53.3880071,97.6977725 C48.1062913,82.9852572 53.3935883,66.9964755 65.3058202,58.1148557 L62.0333517,49 C45.3026472,59.8781184 37.5596035,81.2649098 44.5975502,100.871645 C51.0364436,118.812144 67.9606311,130 85.9619985,130 C87.6345108,130 89.3163252,129.89551 91,129.699592 L87.7275315,120.581005 Z" id="Fill-51" fill="#F68938"></path>
            </g>
        </g>
    </g>
</svg>