<?xml version="1.0" encoding="UTF-8"?>
<svg width="265px" height="580px" viewBox="0 0 265 580" version="1.1" xmlns="http://www.w3.org/2000/svg" xmlns:xlink="http://www.w3.org/1999/xlink">
    <!-- Generator: Sketch 49 (51002) - http://www.bohemiancoding.com/sketch -->
    <title>Group 9</title>
    <desc>Created with Sketch.</desc>
    <defs></defs>
    <g id="NEW" stroke="none" stroke-width="1" fill="none" fill-rule="evenodd">
        <g id="Contact" transform="translate(-1175.000000, -855.000000)">
            <g id="Group-9" transform="translate(1177.000000, 794.000000)">
                <g id="Group-6-Copy-3" transform="translate(364.724963, 351.000000) rotate(-135.000000) translate(-364.724963, -351.000000) translate(116.724963, 103.000000)">
                    <circle id="Oval" stroke="#7B89A9" stroke-width="4" cx="248" cy="248" r="248"></circle>
                    <rect id="Rectangle-2" fill="#F4F4F4" transform="translate(478.979417, 162.593088) rotate(-13.000000) translate(-478.979417, -162.593088) " x="468.479417" y="132.593088" width="21" height="60"></rect>
                </g>
                <g id="Group-6-Copy-2" transform="translate(288.500000, 351.000613) rotate(-180.000000) translate(-288.500000, -351.000613) translate(0.000000, 62.500613)">
                    <circle id="Oval" stroke="#7B89A9" stroke-width="4" cx="288.5" cy="288.5" r="288.5"></circle>
                    <rect id="Rectangle-2" fill="#F4F4F4" transform="translate(557.000000, 189.000000) rotate(-13.000000) translate(-557.000000, -189.000000) " x="545" y="154" width="24" height="70"></rect>
                </g>
                <g id="Page-1-Copy-7" transform="translate(70.934813, 217.983478)" fill="#F8CA6B" stroke="#F8CA6B">
                    <path d="M24.9841772,37.6968644 L2.56353142,37.6968644 C1.15102561,37.6968644 0,36.5479907 0,35.1381256 L0,6.18343731 C0,4.77357223 1.15102561,3.6246985 2.56353142,3.6246985 L6.33833143,3.6246985 C6.62416518,3.6246985 6.84975595,3.85370563 6.84975595,4.13388752 C6.84975595,4.4191869 6.62416518,4.64819402 6.33833143,4.64819402 L2.56353142,4.64819402 C1.71756605,4.64819402 1.02669433,5.33393602 1.02669433,6.18343731 L1.02669433,35.1381256 C1.02669433,35.9876269 1.71756605,36.6733689 2.56353142,36.6733689 L24.9841772,36.6733689 C25.8301426,36.6733689 26.5210143,35.9876269 26.5210143,35.1381256 L26.5210143,6.18343731 C26.5210143,5.33393602 25.8301426,4.64819402 24.9841772,4.64819402 L21.2042501,4.64819402 C20.9235434,4.64819402 20.6928256,4.4191869 20.6928256,4.13388752 C20.6928256,3.85370563 20.9235434,3.6246985 21.2042501,3.6246985 L24.9841772,3.6246985 C26.396683,3.6246985 27.5477086,4.77357223 27.5477086,6.18343731 L27.5477086,35.1381256 C27.5477086,36.5531082 26.396683,37.6968644 24.9841772,37.6968644" id="Fill-1"></path>
                    <path d="M6.8246884,7.6621994 L20.7178751,7.6621994 L20.7178751,3.30285074 L16.0242135,3.30285074 C15.7386578,3.30285074 15.5071261,3.06979973 15.5071261,2.78754906 C15.5122713,1.82168208 14.7327813,1.03707701 13.7732112,1.03707701 C12.813641,1.03707701 12.0354373,1.82168208 12.0354373,2.78754906 C12.0354373,3.06979973 11.8039057,3.30285074 11.5222088,3.30285074 L6.8246884,3.30285074 L6.8246884,7.6621994 Z M21.2349625,8.69927641 L6.31274615,8.69927641 C6.03104928,8.69927641 5.7995176,8.46622539 5.7995176,8.17879581 L5.7995176,2.78754906 C5.7995176,2.49882475 6.03104928,2.26577373 6.31274615,2.26577373 L11.0552866,2.26577373 C11.2971086,0.976224797 12.4226097,0 13.7732112,0 C15.1199537,0 16.2506001,0.976224797 16.492422,2.26577373 L21.2349625,2.26577373 C21.5166593,2.26577373 21.748191,2.49882475 21.748191,2.78754906 L21.748191,8.17879581 C21.748191,8.46622539 21.5166593,8.69927641 21.2349625,8.69927641 Z" id="Fill-4"></path>
                    <path d="M11.9903782,28.2726483 C11.791719,28.2726483 11.6070678,28.1483667 11.5281135,27.9592999 L9.11491307,22.3177067 L4.86156779,22.3177067 C4.5788604,22.3177067 4.3496382,22.0810427 4.3496382,21.7928151 C4.3496382,21.4966546 4.5788604,21.2586685 4.86156779,21.2586685 L9.44346489,21.2586685 C9.64721796,21.2586685 9.82677535,21.3829501 9.91082349,21.5759833 L11.9407134,26.3119071 L15.5866199,15.5787331 C15.65666,15.3764449 15.8362174,15.2389418 16.0450643,15.2270425 C16.2539112,15.2005996 16.4423828,15.3354584 16.5315247,15.5311358 L19.109001,21.2639571 L22.6899612,21.2639571 C22.973942,21.2639571 23.1980704,21.4966546 23.1980704,21.7928151 C23.1980704,22.0810427 22.973942,22.3177067 22.6899612,22.3177067 L18.785543,22.3177067 C18.5868838,22.3177067 18.4073264,22.1987137 18.3232783,22.0149355 L16.1342063,17.1481193 L12.4730183,27.9209577 C12.4029782,28.1245681 12.2246943,28.2620712 12.0158474,28.2726483 L11.9903782,28.2726483 Z" id="Fill-6"></path>
                </g>
                <g id="Page-1-Copy-6" transform="translate(183.100267, 269.000000)" fill="#F68938" stroke="#F68938">
                    <path d="M9.91665471,13.954084 L14.2164922,15.1704141 C14.3127704,15.1975996 14.388733,15.2589861 14.4337806,15.348435 C14.4788282,15.4334992 14.4850112,15.5369793 14.450563,15.6255513 L11.2972311,24.2407115 L19.8333094,14.3443269 L15.5378884,13.1288737 C15.4477932,13.1043191 15.3718306,13.0429326 15.326783,12.9604992 C15.2790855,12.8815737 15.2684861,12.7859861 15.295868,12.6930294 L17.5420649,4.95832735 L9.91665471,13.954084 Z M10.1397607,26.4444126 C10.0795212,26.4444126 10.0184211,26.431274 9.96506607,26.3971137 C9.82393346,26.311275 9.76025167,26.1334664 9.81704894,25.9758036 L13.4107671,15.9134107 L9.06405483,14.651232 C8.95304198,14.6196995 8.86612494,14.5312331 8.82912066,14.4182414 C8.79555864,14.3052497 8.82223614,14.1791194 8.89624471,14.0897771 L17.7135907,3.42826545 C17.817719,3.30213518 17.9958559,3.27060261 18.1369885,3.34593041 C18.2815634,3.42476183 18.3521297,3.59293553 18.3047986,3.75322609 L15.763551,12.7277454 L20.1334986,13.9943035 C20.2479537,14.0284638 20.3357313,14.1169302 20.3692933,14.2299219 C20.4028554,14.3464172 20.3796201,14.4699198 20.3021693,14.5618898 L10.4022329,26.3217859 C10.3351089,26.4041209 10.2370045,26.4444126 10.1397607,26.4444126 Z" id="Fill-1"></path>
                    <path d="M14.3418448,29.7499641 C7.75508116,29.7499641 2.00107196,25.5688627 0.0220891616,19.3449055 C-0.0569939256,19.0965138 0.0830688915,18.831122 0.333657469,18.7527323 C0.587104472,18.6762315 0.851985173,18.8122329 0.931068261,19.061569 C2.78428036,24.8897997 8.173364,28.8055093 14.3418448,28.8055093 C16.601906,28.8055093 18.7714505,28.2803924 20.7904512,27.2443255 C21.0248421,27.1234353 21.3116374,27.214103 21.432644,27.4464388 C21.5536507,27.6778303 21.4621811,27.9621112 21.228743,28.0820569 C19.0734907,29.188958 16.756261,29.7499641 14.3418448,29.7499641" id="Fill-3"></path>
                    <path d="M1.00989222,8.81480418 C0.942842926,8.81480418 0.873956666,8.79995577 0.80874434,8.76747488 C0.580960441,8.65518377 0.486356644,8.3777041 0.597493143,8.14755373 C2.35179656,4.5152613 5.53158631,1.75438496 9.32216756,0.571152247 C9.56281023,0.496910194 9.82182257,0.633329966 9.89621973,0.877400715 C9.97061689,1.12239949 9.83559982,1.38224667 9.59312019,1.45741675 C6.04410008,2.56547939 3.06637669,5.1518869 1.42320978,8.55402897 C1.34330172,8.71921754 1.17981166,8.81480418 1.00989222,8.81480418" id="Fill-6"></path>
                    <path d="M24.1535137,25.342562 C24.0363448,25.342562 23.9191759,25.298176 23.8273155,25.2094038 C23.6417199,25.0280819 23.6370331,24.7296564 23.8170046,24.5417238 C26.3281689,21.9257784 27.7107622,18.4882183 27.7107622,14.8617812 C27.7107622,7.24909656 21.7895136,1.13609473 14.230712,0.944384648 C13.972003,0.936829571 13.7667231,0.720565486 13.7732846,0.459915324 C13.779846,0.198320776 13.9738777,0.00283315394 14.2541458,0 C22.3256785,0.204931469 28.6481136,6.73346254 28.6481136,14.8617812 C28.6481136,18.7337583 27.1717852,22.4055258 24.4900229,25.1990156 C24.3981624,25.2943984 24.2763068,25.342562 24.1535137,25.342562" id="Fill-8"></path>
                </g>
                <path d="M59.7671655,396.697773 L78.0672738,433.457752 L78.222065,415.782255 C78.228383,415.434748 78.5047958,415.158321 78.8507067,415.153583 L96.5253323,414.998784 L59.7671655,396.697773 Z M78.678541,436.730641 C78.4431952,436.730641 78.222065,436.601116 78.1099203,436.384713 L57.7991062,395.574692 C57.675905,395.328278 57.7248696,395.036055 57.9159893,394.846506 C58.107109,394.655377 58.4040554,394.60641 58.6441396,394.729617 L99.4521492,415.039853 C99.7111875,415.169378 99.8470247,415.467919 99.7854241,415.750664 C99.7175055,416.033408 99.4647852,416.238754 99.1741569,416.238754 L79.4809279,416.409348 L79.3135007,436.105128 C79.3071827,436.39735 79.109745,436.650083 78.8206962,436.718005 C78.7701521,436.730641 78.7275056,436.730641 78.678541,436.730641 Z" id="Fill-1" stroke="#CDEAF0" fill="#CDEAF0"></path>
                <g id="Group-9-Copy-4" transform="translate(225.000000, 202.581954)" fill="#F37E6A">
                    <path d="M3.79717178,1.86303976 C2.65667891,2.60123794 1.81088458,3.74469724 1.35744133,5.06289571 L0.421907976,4.79841135 C0.960816972,3.14956345 2.02185836,1.72243896 3.46717905,0.843815951 L3.79717178,1.86303976 Z" id="Fill-1"></path>
                    <path d="M13.4972143,4.61829216 C12.8513133,2.8640641 11.5455366,1.46061499 9.82035036,0.66673806 C8.44964274,0.0361691425 6.94515351,-0.148302261 5.48480368,0.118323074 L5.83996403,1.0831735 C6.15371173,1.03468102 6.4695045,1.00918497 6.78461558,1.00918497 C7.67115307,1.00918497 8.55445254,1.20048865 9.38049007,1.58059639 C10.8561779,2.25965779 11.9729561,3.45997172 12.5254656,4.9604058 C13.0778047,6.46083987 12.9994104,8.08175526 12.3051094,9.52453161 C11.7781633,10.6196952 10.943775,11.5118902 9.90147144,12.1147967 L10.2564614,13.0791472 C11.5554211,12.3745898 12.5946571,11.2947572 13.239706,9.9546316 C14.0515985,8.26772644 14.1431154,6.37252023 13.4972143,4.61829216" id="Fill-3"></path>
                    <path d="M6.7478143,12.9050105 C4.3835207,12.9046747 2.16089797,11.3764022 1.31538047,8.92622938 C1.0481377,8.15210171 0.943333451,7.35765529 0.98229294,6.58335969 L0.0223118195,6.32861963 C-0.0533533032,7.29770657 0.0614322978,8.29802729 0.397256651,9.27080855 C1.38605491,12.1359205 3.98458841,13.9229632 6.74861925,13.9229632 C7.16896315,13.9229632 7.59317081,13.8799748 8.01625154,13.7946696 L7.68123213,12.8242393 C7.36939523,12.8779748 7.05755833,12.9050105 6.7478143,12.9050105" id="Fill-6"></path>
                    <circle id="Oval-3" cx="6.9614816" cy="6.9614816" r="2.32049387"></circle>
                </g>
                <g id="Group-9-Copy-7" transform="translate(77.934813, 292.000000)" fill="#F37E6A">
                    <path d="M3.79717178,1.86303976 C2.65667891,2.60123794 1.81088458,3.74469724 1.35744133,5.06289571 L0.421907976,4.79841135 C0.960816972,3.14956345 2.02185836,1.72243896 3.46717905,0.843815951 L3.79717178,1.86303976 Z" id="Fill-1"></path>
                    <path d="M13.4972143,4.61829216 C12.8513133,2.8640641 11.5455366,1.46061499 9.82035036,0.66673806 C8.44964274,0.0361691425 6.94515351,-0.148302261 5.48480368,0.118323074 L5.83996403,1.0831735 C6.15371173,1.03468102 6.4695045,1.00918497 6.78461558,1.00918497 C7.67115307,1.00918497 8.55445254,1.20048865 9.38049007,1.58059639 C10.8561779,2.25965779 11.9729561,3.45997172 12.5254656,4.9604058 C13.0778047,6.46083987 12.9994104,8.08175526 12.3051094,9.52453161 C11.7781633,10.6196952 10.943775,11.5118902 9.90147144,12.1147967 L10.2564614,13.0791472 C11.5554211,12.3745898 12.5946571,11.2947572 13.239706,9.9546316 C14.0515985,8.26772644 14.1431154,6.37252023 13.4972143,4.61829216" id="Fill-3"></path>
                    <path d="M6.7478143,12.9050105 C4.3835207,12.9046747 2.16089797,11.3764022 1.31538047,8.92622938 C1.0481377,8.15210171 0.943333451,7.35765529 0.98229294,6.58335969 L0.0223118195,6.32861963 C-0.0533533032,7.29770657 0.0614322978,8.29802729 0.397256651,9.27080855 C1.38605491,12.1359205 3.98458841,13.9229632 6.74861925,13.9229632 C7.16896315,13.9229632 7.59317081,13.8799748 8.01625154,13.7946696 L7.68123213,12.8242393 C7.36939523,12.8779748 7.05755833,12.9050105 6.7478143,12.9050105" id="Fill-6"></path>
                    <circle id="Oval-3" cx="6.9614816" cy="6.9614816" r="2.32049387"></circle>
                </g>
                <g id="Group-9-Copy-5" transform="translate(223.060773, 382.000000)" fill="#7B89A9">
                    <path d="M5.77615555,2.83400595 C4.04126848,3.95693316 2.75466891,5.69633269 2.06490323,7.70154073 L0.641795061,7.29921424 C1.46156893,4.79103118 3.07559653,2.6201278 5.27417948,1.28359012 L5.77615555,2.83400595 Z" id="Fill-1"></path>
                    <path d="M20.5315993,7.02522178 C19.5490721,4.35673725 17.5627597,2.22184823 14.9384527,1.014224 C12.8533692,0.0550195264 10.5647806,-0.225593409 8.34333579,0.179989876 L8.88359615,1.64769439 C9.36086071,1.57392893 9.84123617,1.53514503 10.3205747,1.53514503 C11.6691516,1.53514503 13.012803,1.82615104 14.2693491,2.40436071 C16.5141257,3.43733064 18.2129387,5.26321589 19.0534013,7.54563583 C19.8936047,9.82805577 19.7743534,12.2937487 18.7182014,14.4884612 C17.9166251,16.1543946 16.6473761,17.5115776 15.0618519,18.4287028 L15.6018531,19.8956469 C17.5777957,18.823893 19.1586536,17.1812807 20.1398846,15.1427178 C21.3749136,12.576643 21.5141266,9.69370631 20.5315993,7.02522178" id="Fill-3"></path>
                    <path d="M10.2645936,19.6307547 C6.66809374,19.6302439 3.28709985,17.305477 2.00092138,13.57834 C1.59439886,12.4007578 1.43497346,11.1922673 1.49423759,10.0144296 L0.0339401395,9.62692591 C-0.0811596093,11.1010749 0.0934491585,12.6227358 0.604296129,14.1025045 C2.10842944,18.4608358 6.06124869,21.179237 10.265818,21.179237 C10.9052339,21.179237 11.5505271,21.1138441 12.1941062,20.9840802 L11.6844836,19.5078877 C11.2101257,19.5896288 10.7357678,19.6307547 10.2645936,19.6307547" id="Fill-6"></path>
                    <circle id="Oval-3" cx="10.5896185" cy="10.5896185" r="3.52987283"></circle>
                </g>
                <g id="Group-9-Copy-6" transform="translate(194.100267, 448.000000)" fill="#4FAFE2">
                    <path d="M4.71094277,2.31137124 C3.29599581,3.22721324 2.24666518,4.64584048 1.68410301,6.28125702 L0.523438085,5.95312579 C1.19203292,3.90749063 2.50840877,2.13693555 4.30153888,1.04687617 L4.71094277,2.31137124 Z" id="Fill-1"></path>
                    <path d="M16.7452536,5.72966179 C15.9439196,3.55328725 14.3239141,1.81210491 12.1835701,0.827185342 C10.4830083,0.0448730713 8.61647104,-0.183990482 6.80469511,0.146796948 L7.24532307,1.34383396 C7.63457264,1.283672 8.0263594,1.25204045 8.41730043,1.25204045 C9.51717888,1.25204045 10.6130401,1.48938043 11.6378595,1.96095926 C13.4686645,2.80343349 14.85419,4.29259715 15.5396582,6.15410341 C16.2249151,8.01560967 16.1276555,10.0265905 15.2662744,11.816564 C14.6125212,13.1752733 13.5773415,14.2821708 12.2842126,15.0301639 L12.7246291,16.2265806 C14.3361772,15.3524749 15.6255003,14.0127858 16.4257771,12.3501655 C17.4330476,10.2573147 17.5465875,7.90603634 16.7452536,5.72966179" id="Fill-3"></path>
                    <path d="M8.37164311,16.0105387 C5.43839371,16.0101221 2.68090759,14.1140783 1.6319204,11.0742832 C1.30036695,10.1138655 1.17034207,9.12823937 1.21867698,8.1676133 L0.0276810507,7.85157128 C-0.0661925171,9.05386429 0.0762156826,10.2949073 0.492854539,11.5017837 C1.71960231,15.056371 4.94346031,17.2734568 8.37264176,17.2734568 C8.89413939,17.2734568 9.42043056,17.2201234 9.94532362,17.11429 L9.52968342,15.9103303 C9.14280448,15.976997 8.75592554,16.0105387 8.37164311,16.0105387" id="Fill-6"></path>
                    <circle id="Oval-3" cx="8.63672841" cy="8.63672841" r="2.87890947"></circle>
                </g>
                <g id="Group-9-Copy-8" transform="translate(128.000000, 530.000000)" fill="#4FAFE2">
                    <path d="M4.71094277,2.31137124 C3.29599581,3.22721324 2.24666518,4.64584048 1.68410301,6.28125702 L0.523438085,5.95312579 C1.19203292,3.90749063 2.50840877,2.13693555 4.30153888,1.04687617 L4.71094277,2.31137124 Z" id="Fill-1"></path>
                    <path d="M16.7452536,5.72966179 C15.9439196,3.55328725 14.3239141,1.81210491 12.1835701,0.827185342 C10.4830083,0.0448730713 8.61647104,-0.183990482 6.80469511,0.146796948 L7.24532307,1.34383396 C7.63457264,1.283672 8.0263594,1.25204045 8.41730043,1.25204045 C9.51717888,1.25204045 10.6130401,1.48938043 11.6378595,1.96095926 C13.4686645,2.80343349 14.85419,4.29259715 15.5396582,6.15410341 C16.2249151,8.01560967 16.1276555,10.0265905 15.2662744,11.816564 C14.6125212,13.1752733 13.5773415,14.2821708 12.2842126,15.0301639 L12.7246291,16.2265806 C14.3361772,15.3524749 15.6255003,14.0127858 16.4257771,12.3501655 C17.4330476,10.2573147 17.5465875,7.90603634 16.7452536,5.72966179" id="Fill-3"></path>
                    <path d="M8.37164311,16.0105387 C5.43839371,16.0101221 2.68090759,14.1140783 1.6319204,11.0742832 C1.30036695,10.1138655 1.17034207,9.12823937 1.21867698,8.1676133 L0.0276810507,7.85157128 C-0.0661925171,9.05386429 0.0762156826,10.2949073 0.492854539,11.5017837 C1.71960231,15.056371 4.94346031,17.2734568 8.37264176,17.2734568 C8.89413939,17.2734568 9.42043056,17.2201234 9.94532362,17.11429 L9.52968342,15.9103303 C9.14280448,15.976997 8.75592554,16.0105387 8.37164311,16.0105387" id="Fill-6"></path>
                    <circle id="Oval-3" cx="8.63672841" cy="8.63672841" r="2.87890947"></circle>
                </g>
            </g>
        </g>
    </g>
</svg>