<?xml version="1.0" encoding="UTF-8"?>
<svg width="300px" height="582px" viewBox="0 0 300 582" version="1.1" xmlns="http://www.w3.org/2000/svg" xmlns:xlink="http://www.w3.org/1999/xlink">
    <!-- Generator: Sketch 49 (51002) - http://www.bohemiancoding.com/sketch -->
    <title>Group 10</title>
    <desc>Created with Sketch.</desc>
    <defs></defs>
    <g id="NEW" stroke="none" stroke-width="1" fill="none" fill-rule="evenodd">
        <g id="Contact" transform="translate(0.000000, -854.000000)">
            <g id="Group-10" transform="translate(-419.000000, 794.000000)">
                <g id="Group-6" transform="translate(358.039901, 351.000000) rotate(-180.000000) translate(-358.039901, -351.000000) translate(0.039901, 0.000000)">
                    <g id="Group-6-Copy-4" transform="translate(364.724963, 351.000000) rotate(-135.000000) translate(-364.724963, -351.000000) translate(116.724963, 103.000000)">
                        <circle id="Oval" stroke="#7B89A9" stroke-width="4" cx="248" cy="248" r="248"></circle>
                        <rect id="Rectangle-2" fill="#F4F4F4" transform="translate(478.979417, 162.593088) rotate(-13.000000) translate(-478.979417, -162.593088) " x="468.479417" y="132.593088" width="21" height="60"></rect>
                    </g>
                    <g id="Group-6-Copy-5" transform="translate(288.500000, 351.000613) rotate(-180.000000) translate(-288.500000, -351.000613) translate(0.000000, 62.500613)">
                        <circle id="Oval" stroke="#7B89A9" stroke-width="4" cx="288.5" cy="288.5" r="288.5"></circle>
                        <rect id="Rectangle-2" fill="#F4F4F4" transform="translate(557.000000, 189.000000) rotate(-13.000000) translate(-557.000000, -189.000000) " x="545" y="154" width="24" height="70"></rect>
                    </g>
                    <path d="M59.7671655,396.697773 L78.0672738,433.457752 L78.222065,415.782255 C78.228383,415.434748 78.5047958,415.158321 78.8507067,415.153583 L96.5253323,414.998784 L59.7671655,396.697773 Z M78.678541,436.730641 C78.4431952,436.730641 78.222065,436.601116 78.1099203,436.384713 L57.7991062,395.574692 C57.675905,395.328278 57.7248696,395.036055 57.9159893,394.846506 C58.107109,394.655377 58.4040554,394.60641 58.6441396,394.729617 L99.4521492,415.039853 C99.7111875,415.169378 99.8470247,415.467919 99.7854241,415.750664 C99.7175055,416.033408 99.4647852,416.238754 99.1741569,416.238754 L79.4809279,416.409348 L79.3135007,436.105128 C79.3071827,436.39735 79.109745,436.650083 78.8206962,436.718005 C78.7701521,436.730641 78.7275056,436.730641 78.678541,436.730641 Z" id="Fill-1-Copy" stroke="#CDEAF0" fill="#CDEAF0" transform="translate(78.765837, 415.696345) rotate(-105.000000) translate(-78.765837, -415.696345) "></path>
                    <g id="Group-9-Copy-9" transform="translate(225.000000, 202.581954)" fill="#F37E6A">
                        <path d="M3.79717178,1.86303976 C2.65667891,2.60123794 1.81088458,3.74469724 1.35744133,5.06289571 L0.421907976,4.79841135 C0.960816972,3.14956345 2.02185836,1.72243896 3.46717905,0.843815951 L3.79717178,1.86303976 Z" id="Fill-1"></path>
                        <path d="M13.4972143,4.61829216 C12.8513133,2.8640641 11.5455366,1.46061499 9.82035036,0.66673806 C8.44964274,0.0361691425 6.94515351,-0.148302261 5.48480368,0.118323074 L5.83996403,1.0831735 C6.15371173,1.03468102 6.4695045,1.00918497 6.78461558,1.00918497 C7.67115307,1.00918497 8.55445254,1.20048865 9.38049007,1.58059639 C10.8561779,2.25965779 11.9729561,3.45997172 12.5254656,4.9604058 C13.0778047,6.46083987 12.9994104,8.08175526 12.3051094,9.52453161 C11.7781633,10.6196952 10.943775,11.5118902 9.90147144,12.1147967 L10.2564614,13.0791472 C11.5554211,12.3745898 12.5946571,11.2947572 13.239706,9.9546316 C14.0515985,8.26772644 14.1431154,6.37252023 13.4972143,4.61829216" id="Fill-3"></path>
                        <path d="M6.7478143,12.9050105 C4.3835207,12.9046747 2.16089797,11.3764022 1.31538047,8.92622938 C1.0481377,8.15210171 0.943333451,7.35765529 0.98229294,6.58335969 L0.0223118195,6.32861963 C-0.0533533032,7.29770657 0.0614322978,8.29802729 0.397256651,9.27080855 C1.38605491,12.1359205 3.98458841,13.9229632 6.74861925,13.9229632 C7.16896315,13.9229632 7.59317081,13.8799748 8.01625154,13.7946696 L7.68123213,12.8242393 C7.36939523,12.8779748 7.05755833,12.9050105 6.7478143,12.9050105" id="Fill-6"></path>
                        <circle id="Oval-3" cx="6.9614816" cy="6.9614816" r="2.32049387"></circle>
                    </g>
                    <g id="Group-9-Copy-10" transform="translate(77.934813, 292.000000)" fill="#F37E6A">
                        <path d="M3.79717178,1.86303976 C2.65667891,2.60123794 1.81088458,3.74469724 1.35744133,5.06289571 L0.421907976,4.79841135 C0.960816972,3.14956345 2.02185836,1.72243896 3.46717905,0.843815951 L3.79717178,1.86303976 Z" id="Fill-1"></path>
                        <path d="M13.4972143,4.61829216 C12.8513133,2.8640641 11.5455366,1.46061499 9.82035036,0.66673806 C8.44964274,0.0361691425 6.94515351,-0.148302261 5.48480368,0.118323074 L5.83996403,1.0831735 C6.15371173,1.03468102 6.4695045,1.00918497 6.78461558,1.00918497 C7.67115307,1.00918497 8.55445254,1.20048865 9.38049007,1.58059639 C10.8561779,2.25965779 11.9729561,3.45997172 12.5254656,4.9604058 C13.0778047,6.46083987 12.9994104,8.08175526 12.3051094,9.52453161 C11.7781633,10.6196952 10.943775,11.5118902 9.90147144,12.1147967 L10.2564614,13.0791472 C11.5554211,12.3745898 12.5946571,11.2947572 13.239706,9.9546316 C14.0515985,8.26772644 14.1431154,6.37252023 13.4972143,4.61829216" id="Fill-3"></path>
                        <path d="M6.7478143,12.9050105 C4.3835207,12.9046747 2.16089797,11.3764022 1.31538047,8.92622938 C1.0481377,8.15210171 0.943333451,7.35765529 0.98229294,6.58335969 L0.0223118195,6.32861963 C-0.0533533032,7.29770657 0.0614322978,8.29802729 0.397256651,9.27080855 C1.38605491,12.1359205 3.98458841,13.9229632 6.74861925,13.9229632 C7.16896315,13.9229632 7.59317081,13.8799748 8.01625154,13.7946696 L7.68123213,12.8242393 C7.36939523,12.8779748 7.05755833,12.9050105 6.7478143,12.9050105" id="Fill-6"></path>
                        <circle id="Oval-3" cx="6.9614816" cy="6.9614816" r="2.32049387"></circle>
                    </g>
                    <g id="Group-7" transform="translate(196.000000, 331.000000)">
                        <g id="Page-1-Copy-9" transform="translate(0.469613, 0.184699)" fill="#F68938" stroke="#F68938">
                            <path d="M12.7441479,17.932752 L18.2699795,19.4958891 C18.3937091,19.5308258 18.4913306,19.6097152 18.5492224,19.7246684 C18.6071143,19.8339865 18.6150602,19.9669715 18.57079,20.0807977 L14.5183621,31.1523614 L25.4882957,18.4342632 L19.9681398,16.8722531 C19.8523561,16.8406973 19.7547346,16.7618079 19.6968428,16.6558707 C19.6355455,16.5544415 19.6219239,16.4315994 19.6571131,16.3121383 L22.5437585,6.37207393 L12.7441479,17.932752 Z M13.0308671,33.9843943 C12.9534518,33.9843943 12.8749304,33.9675096 12.8063626,33.9236093 C12.6249894,33.8132959 12.5431503,33.5847894 12.6161419,33.3821728 L17.2345216,20.4507331 L11.6484498,18.8286749 C11.5057844,18.7881516 11.3940851,18.6744612 11.3465299,18.5292526 C11.3033985,18.3840441 11.3376824,18.2219508 11.4327927,18.1071348 L22.7641907,4.40575206 C22.8980087,4.2436588 23.126937,4.20313549 23.3083101,4.29994118 C23.494107,4.40124946 23.5847936,4.61737381 23.5239672,4.82336732 L20.2581446,16.3567527 L25.8740766,17.9844392 C26.0211658,18.0283394 26.133971,18.1420298 26.1771024,18.2872384 C26.2202339,18.4369495 26.1903736,18.5956658 26.0908396,18.7138588 L13.3681769,33.8268036 C13.2819141,33.9326145 13.1558376,33.9843943 13.0308671,33.9843943 Z" id="Fill-1"></path>
                            <path d="M18.4310734,38.2324436 C9.96625414,38.2324436 2.57162901,32.8592027 0.0283873494,24.8606353 C-0.0732443588,24.5414208 0.106753968,24.200359 0.42879179,24.0996183 C0.754503048,24.0013051 1.09490805,24.1760841 1.19653975,24.4965123 C3.57815027,31.9865213 10.5038002,37.0187004 18.4310734,37.0187004 C21.3355362,37.0187004 24.1236735,36.3438592 26.7183433,35.012383 C27.019565,34.8570239 27.388133,34.9735432 27.5436417,35.272124 C27.6991505,35.5694911 27.5816006,35.9348278 27.2816034,36.0889732 C24.5118332,37.5114802 21.5339017,38.2324436 18.4310734,38.2324436" id="Fill-3"></path>
                            <path d="M1.29783845,11.3281314 C1.21167168,11.3281314 1.12314418,11.3090494 1.03933814,11.2673073 C0.746607196,11.1229991 0.625029425,10.7664029 0.767853797,10.4706307 C3.02235421,5.80267836 7.10878375,2.25460521 11.9801572,0.734002434 C12.2894132,0.638592063 12.6222766,0.813908619 12.7178864,1.12757021 C12.8134961,1.44242443 12.6399821,1.77636073 12.3283653,1.87296373 C7.76742838,3.29696351 3.94067951,6.62082229 1.82900347,10.9930025 C1.72631156,11.2052906 1.51620629,11.3281314 1.29783845,11.3281314" id="Fill-6"></path>
                            <path d="M31.0403013,32.5683779 C30.8897246,32.5683779 30.7391478,32.5113362 30.6210956,32.3972528 C30.3825819,32.1642314 30.3765588,31.7807171 30.6078448,31.5392001 C33.8350066,28.1773814 35.6118128,23.7596845 35.6118128,19.099257 C35.6118128,9.31600032 28.002264,1.46002454 18.2882538,1.21365299 C17.9557803,1.20394376 17.6919697,0.926017228 17.700402,0.591049004 C17.7088343,0.254867127 17.9581895,0.00364095896 18.3183692,0 C28.6913034,0.263362698 36.8164272,8.65334579 36.8164272,19.099257 C36.8164272,24.0752343 34.9191596,28.7939171 31.4727579,32.3839026 C31.3547057,32.5064816 31.1981058,32.5683779 31.0403013,32.5683779" id="Fill-8"></path>
                        </g>
                        <g id="Group-9-Copy-11" transform="translate(35.530387, 95.684699)" fill="#7B89A9">
                            <path d="M5.77615555,2.83400595 C4.04126848,3.95693316 2.75466891,5.69633269 2.06490323,7.70154073 L0.641795061,7.29921424 C1.46156893,4.79103118 3.07559653,2.6201278 5.27417948,1.28359012 L5.77615555,2.83400595 Z" id="Fill-1"></path>
                            <path d="M20.5315993,7.02522178 C19.5490721,4.35673725 17.5627597,2.22184823 14.9384527,1.014224 C12.8533692,0.0550195264 10.5647806,-0.225593409 8.34333579,0.179989876 L8.88359615,1.64769439 C9.36086071,1.57392893 9.84123617,1.53514503 10.3205747,1.53514503 C11.6691516,1.53514503 13.012803,1.82615104 14.2693491,2.40436071 C16.5141257,3.43733064 18.2129387,5.26321589 19.0534013,7.54563583 C19.8936047,9.82805577 19.7743534,12.2937487 18.7182014,14.4884612 C17.9166251,16.1543946 16.6473761,17.5115776 15.0618519,18.4287028 L15.6018531,19.8956469 C17.5777957,18.823893 19.1586536,17.1812807 20.1398846,15.1427178 C21.3749136,12.576643 21.5141266,9.69370631 20.5315993,7.02522178" id="Fill-3"></path>
                            <path d="M10.2645936,19.6307547 C6.66809374,19.6302439 3.28709985,17.305477 2.00092138,13.57834 C1.59439886,12.4007578 1.43497346,11.1922673 1.49423759,10.0144296 L0.0339401395,9.62692591 C-0.0811596093,11.1010749 0.0934491585,12.6227358 0.604296129,14.1025045 C2.10842944,18.4608358 6.06124869,21.179237 10.265818,21.179237 C10.9052339,21.179237 11.5505271,21.1138441 12.1941062,20.9840802 L11.6844836,19.5078877 C11.2101257,19.5896288 10.7357678,19.6307547 10.2645936,19.6307547" id="Fill-6"></path>
                            <circle id="Oval-3" cx="10.5896185" cy="10.5896185" r="3.52987283"></circle>
                        </g>
                    </g>
                    <g id="Group-9-Copy-14" transform="translate(119.000000, 170.478876)" fill="#4FAFE2">
                        <path d="M4.71094277,2.31137124 C3.29599581,3.22721324 2.24666518,4.64584048 1.68410301,6.28125702 L0.523438085,5.95312579 C1.19203292,3.90749063 2.50840877,2.13693555 4.30153888,1.04687617 L4.71094277,2.31137124 Z" id="Fill-1"></path>
                        <path d="M16.7452536,5.72966179 C15.9439196,3.55328725 14.3239141,1.81210491 12.1835701,0.827185342 C10.4830083,0.0448730713 8.61647104,-0.183990482 6.80469511,0.146796948 L7.24532307,1.34383396 C7.63457264,1.283672 8.0263594,1.25204045 8.41730043,1.25204045 C9.51717888,1.25204045 10.6130401,1.48938043 11.6378595,1.96095926 C13.4686645,2.80343349 14.85419,4.29259715 15.5396582,6.15410341 C16.2249151,8.01560967 16.1276555,10.0265905 15.2662744,11.816564 C14.6125212,13.1752733 13.5773415,14.2821708 12.2842126,15.0301639 L12.7246291,16.2265806 C14.3361772,15.3524749 15.6255003,14.0127858 16.4257771,12.3501655 C17.4330476,10.2573147 17.5465875,7.90603634 16.7452536,5.72966179" id="Fill-3"></path>
                        <path d="M8.37164311,16.0105387 C5.43839371,16.0101221 2.68090759,14.1140783 1.6319204,11.0742832 C1.30036695,10.1138655 1.17034207,9.12823937 1.21867698,8.1676133 L0.0276810507,7.85157128 C-0.0661925171,9.05386429 0.0762156826,10.2949073 0.492854539,11.5017837 C1.71960231,15.056371 4.94346031,17.2734568 8.37264176,17.2734568 C8.89413939,17.2734568 9.42043056,17.2201234 9.94532362,17.11429 L9.52968342,15.9103303 C9.14280448,15.976997 8.75592554,16.0105387 8.37164311,16.0105387" id="Fill-6"></path>
                        <circle id="Oval-3" cx="8.63672841" cy="8.63672841" r="2.87890947"></circle>
                    </g>
                    <g id="Group-9-Copy-13" transform="translate(128.000000, 530.000000)" fill="#4FAFE2">
                        <path d="M4.71094277,2.31137124 C3.29599581,3.22721324 2.24666518,4.64584048 1.68410301,6.28125702 L0.523438085,5.95312579 C1.19203292,3.90749063 2.50840877,2.13693555 4.30153888,1.04687617 L4.71094277,2.31137124 Z" id="Fill-1"></path>
                        <path d="M16.7452536,5.72966179 C15.9439196,3.55328725 14.3239141,1.81210491 12.1835701,0.827185342 C10.4830083,0.0448730713 8.61647104,-0.183990482 6.80469511,0.146796948 L7.24532307,1.34383396 C7.63457264,1.283672 8.0263594,1.25204045 8.41730043,1.25204045 C9.51717888,1.25204045 10.6130401,1.48938043 11.6378595,1.96095926 C13.4686645,2.80343349 14.85419,4.29259715 15.5396582,6.15410341 C16.2249151,8.01560967 16.1276555,10.0265905 15.2662744,11.816564 C14.6125212,13.1752733 13.5773415,14.2821708 12.2842126,15.0301639 L12.7246291,16.2265806 C14.3361772,15.3524749 15.6255003,14.0127858 16.4257771,12.3501655 C17.4330476,10.2573147 17.5465875,7.90603634 16.7452536,5.72966179" id="Fill-3"></path>
                        <path d="M8.37164311,16.0105387 C5.43839371,16.0101221 2.68090759,14.1140783 1.6319204,11.0742832 C1.30036695,10.1138655 1.17034207,9.12823937 1.21867698,8.1676133 L0.0276810507,7.85157128 C-0.0661925171,9.05386429 0.0762156826,10.2949073 0.492854539,11.5017837 C1.71960231,15.056371 4.94346031,17.2734568 8.37264176,17.2734568 C8.89413939,17.2734568 9.42043056,17.2201234 9.94532362,17.11429 L9.52968342,15.9103303 C9.14280448,15.976997 8.75592554,16.0105387 8.37164311,16.0105387" id="Fill-6"></path>
                        <circle id="Oval-3" cx="8.63672841" cy="8.63672841" r="2.87890947"></circle>
                    </g>
                </g>
                <path d="M645.409875,475.612917 C643.854455,475.612917 642.384808,475.242897 641.082005,474.589632 C643.609357,472.569023 645.231515,469.470165 645.231515,465.999883 C645.231515,462.529601 643.609357,459.430743 641.082005,457.410368 C642.384808,456.757103 643.854455,456.387083 645.409875,456.387083 C650.735291,456.387083 655.068096,460.699383 655.068096,465.999883 C655.068096,471.300617 650.735291,475.612917 645.409875,475.612917 M643.821556,465.999883 C643.821556,469.213583 642.227362,472.061708 639.786488,473.807959 C637.346083,472.061708 635.751655,469.213583 635.751655,465.999883 C635.751655,462.786417 637.346083,459.938058 639.786488,458.192041 C642.227362,459.938058 643.821556,462.786417 643.821556,465.999883 M634.16357,475.612917 C628.837919,475.612917 624.50535,471.300617 624.50535,465.999883 C624.50535,460.699383 628.837919,456.387083 634.16357,456.387083 C635.718991,456.387083 637.188638,456.757103 638.49144,457.410368 C635.964088,459.430743 634.341695,462.529601 634.341695,465.999883 C634.341695,469.470165 635.964088,472.569023 638.49144,474.589632 C637.188638,475.242897 635.718991,475.612917 634.16357,475.612917 M645.409875,454.983721 C643.357915,454.983721 641.435905,455.54413 639.786488,456.51666 C638.137541,455.54413 636.215296,454.983721 634.16357,454.983721 C628.060562,454.983721 623.095391,459.925662 623.095391,465.999883 C623.095391,472.074338 628.060562,477.016279 634.16357,477.016279 C636.215296,477.016279 638.137541,476.45587 639.786488,475.483106 C641.435905,476.45587 643.357915,477.016279 645.409875,477.016279 C651.512884,477.016279 656.478055,472.074338 656.478055,465.999883 C656.478055,459.925662 651.512884,454.983721 645.409875,454.983721" id="Fill-1" fill="#7B89A9"></path>
            </g>
        </g>
    </g>
</svg>