<svg width="118" height="121" viewBox="0 0 118 121" xmlns="http://www.w3.org/2000/svg">
  <g fill-rule="evenodd">
    <path d="M19.95 19.04c-4.18 0-7.95 4-11.3 7.53a72.6 72.6 0 0 1-1.96 2.02c-3.2 3.23-2.87 11.69.83 21.57C12.1 62.36 21.2 75.7 33.14 87.7c11.94 12.01 25.2 21.16 37.34 25.76 9.85 3.73 18.25 4.05 21.46.84.63-.65 1.33-1.3 2.03-1.98 3.59-3.43 7.65-7.32 7.48-11.63-.12-2.97-2.27-6.14-6.39-9.47-12.3-9.94-15.73-6.44-21.44-.62l-1.13 1.13c-2.7 2.75-7.15 2.15-13.15-1.78-4.17-2.73-9.33-7.16-15.32-13.18C29.24 61.88 24.5 52.79 29.14 48.12l1.1-1.1c5.8-5.73 9.29-9.2-.6-21.57-3.3-4.14-6.46-6.3-9.42-6.41h-.27zM84.55 120c-4.34 0-9.56-1.1-15.3-3.26-12.6-4.79-26.29-14.21-38.58-26.56C18.38 77.82 9.01 64.06 4.24 51.4-.08 39.88-.08 30.43 4.21 26.12c.63-.64 1.26-1.3 1.91-1.99 3.93-4.14 8.44-8.86 14.24-8.6 4.06.18 7.99 2.7 12 7.73 11.88 14.85 6.52 20.14.34 26.28l-1.1 1.08c-1.01 1.02-2.93 5.74 14.9 23.67C52.32 80.12 57.27 84.4 61.25 87c2.49 1.63 6.94 4.1 8.77 2.25l1.11-1.12c6.1-6.2 11.37-11.58 26.14.35 5 4.05 7.5 8 7.68 12.06.24 5.92-4.44 10.38-8.57 14.33-.68.65-1.35 1.29-1.96 1.9-2.15 2.15-5.57 3.23-9.87 3.23z"/>
    <path d="M95.66 91a1.74 1.74 0 0 1-1.02-3.15 46.7 46.7 0 0 0 9.52-9.37 45.65 45.65 0 0 0 9.36-27.88c0-25.42-20.61-46.1-45.96-46.1a45.93 45.93 0 0 0-21.98 5.6 1.74 1.74 0 1 1-1.67-3.07A49.31 49.31 0 0 1 67.56 1C94.83 1 117 23.25 117 50.6a49.15 49.15 0 0 1-10.08 29.99A49.99 49.99 0 0 1 96.7 90.68c-.31.22-.69.32-1.04.32"/>
    <path d="M57.78 32.01A21.58 21.58 0 0 1 64.03 31c5.56 0 8.97 2.8 8.97 7.58 0 2.64-1.45 4.67-4.56 6.71l-6.22 4.23a6.49 6.49 0 0 0-2.8 5.58h12.76c.27 0 .43.16.43.43v3.04c0 .28-.16.43-.43.43H55.43c-.28 0-.43-.15-.43-.43v-1.89c0-4.83 1.57-8.3 5.08-10.63l6.22-4.16c1.57-1.07 2.27-2.1 2.27-3.31 0-2.22-1.73-3.63-4.56-3.63-1.76 0-3.45.31-4.93.83l-2.29.75c-.22.07-.42-.05-.51-.3l-.97-2.95c-.12-.24 0-.42.27-.51l2.2-.76zm32.91 9.56c0-1.24.07-2.46.22-3.8.09-.44-.27-.56-.58-.14l-6.42 7.96c-.51.7-1.25 1.58-1.8 2.08-.3.32-.13.58.19.58h8.39v-6.68zM98 51.66c0 .27-.15.44-.43.44h-2.46v6.48c0 .27-.15.42-.43.42h-3.56c-.28 0-.43-.15-.43-.42V52.1H77.43c-.28 0-.43-.17-.43-.44V48.4c0-.23.03-.38.19-.53 1-1.13 1.85-2.17 2.82-3.45l7.3-9.19c.76-.97 1.35-1.9 2.02-2.97.18-.2.33-.27.57-.27h4.78c.28 0 .43.15.43.42v15.84h2.46c.28 0 .43.15.43.43v2.97z"/>
  </g>
</svg>
