<svg width="139" height="89" viewBox="0 0 139 89" xmlns="http://www.w3.org/2000/svg">
  <path d="M118.88 84.16H134v-10.7h-15.13v10.7zm-19 0h15.14v-10.7H99.88v10.7zm-19 0h15.14v-10.7H80.9v10.7zm-18.99 0h15.14v-10.7H61.89v10.7zm-19 0h15.14v-10.7H42.9v10.7zm-18.99 0h15.14v-10.7H23.9v10.7zm-19 0h15.14v-10.7H4.91v10.7zm0-70.48h129.11V4.37H4.91v9.31zm113.98 14.1H134V17.07h-15.13v10.7zm0 14.1H134V31.15h-15.13v10.71zm0 14.1H134V45.25h-15.13v10.71zm0 14.09H134V59.36h-15.13v10.7zm-19 0h15.14V59.36H99.88v10.7zm-19 0h15.14V59.36H80.9v10.7zm-18.99 0h15.14V59.36H61.89v10.7zm-19 0h15.14V59.36H42.9v10.7zm-18.99 0h15.14V59.36H23.9v10.7zm-19 0h15.14V59.36H4.91v10.7zm0-14.1h15.14V45.26H4.91v10.71zm0-14.1h15.14v-10.7H4.91v10.7zm0-14.1h15.14v-10.7H4.91v10.7zm94.98 14.1h15.14v-10.7H99.88v10.7zm0 14.1h15.14V45.26H99.88v10.71zm-19 0h15.14V45.26H80.9v10.71zm-18.99 0h15.14V45.26H61.89v10.71zm-19 0h15.14V45.26H42.9v10.71zm-18.99 0h15.14V45.26H23.9v10.71zm0-14.1h15.14v-10.7H23.9v10.7zm19 0h15.13v-10.7H42.9v10.7zm37.99 0h15.13v-10.7H80.9v10.7zm-19 0h15.14v-10.7H61.89v10.7zm38-14.1h15.13v-10.7H99.88v10.7zm-19 0h15.13v-10.7H80.9v10.7zm-19 0h15.14v-10.7H61.89v10.7zm-19 0h15.14v-10.7H42.9v10.7zm-18.99 0h15.14v-10.7H23.9v10.7zM135.94.99H2.98c-1.07 0-1.93.77-1.93 1.7v83.18c0 .93.86 1.69 1.93 1.69h132.96c1.06 0 1.93-.76 1.93-1.7V2.69c0-.93-.87-1.7-1.93-1.7z" fill="#FFF" stroke="#FFF" fill-rule="evenodd"/>
</svg>
