<svg width="86" height="85" viewBox="0 0 86 85" xmlns="http://www.w3.org/2000/svg">
  <g fill-rule="evenodd">
    <path d="M79.76 42.75A35.15 35.15 0 0 1 72 65.35l4.2 4.6a41.12 41.12 0 0 0 9.78-28l-6.22.8zm-68.9 27.98A43 43 0 0 0 40.5 84.87 43.23 43.23 0 0 0 66 78.4l-4.2-4.65a36.81 36.81 0 0 1-20.94 5 36.78 36.78 0 0 1-25.34-12.09 35.63 35.63 0 0 1-9.23-26.18 35.61 35.61 0 0 1 7.51-19.89l-4.2-4.65A41.61 41.61 0 0 0 .08 40.12a41.64 41.64 0 0 0 10.78 30.6m14.31-58.27a36.62 36.62 0 0 1 53.6 19.5l6.23-.83A42.8 42.8 0 0 0 21 7.75l4.17 4.7z" />
    <path d="M60 43.94l-26 18v-36z"/>
  </g>
</svg>
