<svg xmlns="http://www.w3.org/2000/svg">
  <g fill-rule="evenodd">
    <path d="M32.74 43.68H4.26A1.97 1.97 0 0 1 2.3 41.7V4.3c0-1.09.88-1.98 1.96-1.98h20.03v10.19c0 .36.3.65.65.65h9.76V41.7c0 1.1-.88 1.98-1.96 1.98zM25.6 3.3l8.21 8.55h-8.2V3.3zM36 12.5c0-.06-.02-.12-.03-.17-.01-.02 0-.05-.02-.07a.42.42 0 0 0-.09-.14l-.04-.08L25.4 1.2a.65.65 0 0 0-.47-.2H4.26A3.29 3.29 0 0 0 1 4.3v37.4C1 43.52 2.46 45 4.26 45h28.48c1.8 0 3.26-1.48 3.26-3.3V12.5z"/>
    <path d="M23.47 21.77l-2.24-1.7 1-1.46 2.24 1.7-1 1.46zM14 35.43l-2.04-1.53 8.65-12.65 2.02 1.54L14 35.43zm-2.62 1.75l.17-1.94 1.44 1.08-1.6.86zm11.08-20.05a.62.62 0 0 0-.89.15l-1.74 2.56-.02.02-9.33 13.65a.77.77 0 0 0-.12.56l-.35 4.2c-.02.24.09.48.28.61.1.08.23.12.36.12.1 0 .2-.03.29-.07l3.57-1.91c.07-.03.11-.1.16-.15a.69.69 0 0 0 .23-.21l9.33-13.65c.01-.02.01-.05.03-.07l1.63-2.4a.7.7 0 0 0-.15-.93l-3.28-2.48z"/>
  </g>
</svg>
