<svg xmlns="http://www.w3.org/2000/svg">
  <g fill-rule="evenodd">
    <path d="M8.3 4.34c-1.62 0-3.07 1.54-4.36 2.89-.25.27-.5.53-.75.77-1.23 1.24-1.1 4.48.32 8.26 1.76 4.67 5.26 9.78 9.86 14.38 4.6 4.59 9.7 8.09 14.37 9.85 3.78 1.43 7.02 1.55 8.25.32.24-.25.5-.5.78-.75 1.38-1.32 2.95-2.8 2.88-4.46-.05-1.13-.87-2.35-2.46-3.62-4.73-3.8-6.05-2.47-8.25-.24l-.43.43c-1.05 1.05-2.75.82-5.06-.68a39.45 39.45 0 0 1-5.9-5.05c-5.7-5.7-7.51-9.17-5.72-10.96l.42-.42c2.23-2.2 3.57-3.52-.23-8.26-1.27-1.58-2.5-2.4-3.62-2.46h-.1zM33.14 43c-1.67 0-3.68-.41-5.89-1.25-4.85-1.83-10.11-5.44-14.84-10.17-4.73-4.73-8.35-10-10.17-14.84C.59 12.33.59 8.7 2.23 7.06l.74-.76C4.48 4.7 6.2 2.9 8.45 3c1.56.07 3.07 1.04 4.62 2.96 4.57 5.68 2.51 7.71.13 10.06l-.42.42c-.4.39-1.14 2.2 5.73 9.05a38.24 38.24 0 0 0 5.67 4.88c.96.62 2.67 1.56 3.38.86l.42-.43c2.35-2.38 4.38-4.43 10.06.13 1.93 1.55 2.9 3.06 2.96 4.62.09 2.27-1.71 3.97-3.3 5.49l-.76.72c-.82.83-2.14 1.24-3.8 1.24zM41.3 1a.7.7 0 0 1 .5.2.7.7 0 0 1 0 1L28.2 15.8a.7.7 0 0 1-1-1L40.8 1.2c.14-.13.32-.2.5-.2"/>
    <path d="M27.65 5c.37 0 .66.3.66.66v9.03h9.03a.66.66 0 1 1 0 1.31h-9.68a.66.66 0 0 1-.66-.66V5.66c0-.37.3-.66.65-.66"/>
  </g>
</svg>
