<svg width="108" height="148" viewBox="0 0 108 148" xmlns="http://www.w3.org/2000/svg">
  <g fill-rule="evenodd">
    <path d="M97.4 147.11H11.22a9.9 9.9 0 0 1-9.85-9.92V24.93A9.9 9.9 0 0 1 11.2 15h14.51c1.1 0 1.97.88 1.97 1.97 0 1.1-.87 2-1.97 2h-14.5a5.93 5.93 0 0 0-5.9 5.95v112.26c0 3.3 2.65 5.96 5.9 5.96h86.2c3.25 0 5.9-2.66 5.9-5.96V24.93c0-3.3-2.65-5.96-5.9-5.96H82.87a1.98 1.98 0 0 1 0-3.96h14.54a9.9 9.9 0 0 1 9.85 9.92v112.26a9.9 9.9 0 0 1-9.85 9.92"/>
    <path d="M28.19 30.87H81.7V13.94H63.62a2 2 0 0 1-1.99-2 6.72 6.72 0 0 0-6.68-6.8 6.75 6.75 0 0 0-6.69 6.8 2 2 0 0 1-1.98 2h-18.1v16.93zm55.5 4.03H26.23a2 2 0 0 1-1.98-2.02V11.94a2 2 0 0 1 1.98-2.03h18.26c.94-5 5.27-8.8 10.47-8.8 5.2 0 9.55 3.8 10.48 8.8H83.7a2 2 0 0 1 1.97 2.03v20.94a2 2 0 0 1-1.97 2.02zM48 108.5c-.77 0-1.49-.46-1.8-1.16l-9.4-20.86H20.2c-1.1 0-2-.88-2-1.94 0-1.1.9-1.98 2-1.98h17.87a2 2 0 0 1 1.82 1.17l7.91 17.52 14.21-39.7a2 2 0 0 1 1.79-1.3c.81-.1 1.55.4 1.9 1.13l10.04 21.2H89.7a1.95 1.95 0 1 1 0 3.9H74.5a2 2 0 0 1-1.8-1.12l-8.53-18L49.9 107.2a1.98 1.98 0 0 1-1.79 1.3H48z"/>
  </g>
</svg>
