<svg width="33" height="33" xmlns="http://www.w3.org/2000/svg">
  <path class="path" transform="rotate(360 16.5 16.5)" fill="#1D5480" fill-rule="evenodd" d="M9 4.416C6.297 6.166 4.292 8.876 3.217 12L1 11.373C2.277 7.465 4.792 4.083 8.218 2L9 4.416z" />
  <path class="path" transform="rotate(360 16.5 16.5)" fill="#1D5480" fill-rule="evenodd" d="M31.99 10.946c-1.53-4.158-4.625-7.484-8.714-9.366A17.14 17.14 0 0 0 13 .28l.842 2.287a14.662 14.662 0 0 1 2.239-.175c2.101 0 4.195.453 6.152 1.354 3.498 1.61 6.145 4.455 7.455 8.011a13.773 13.773 0 0 1-.523 10.818 14.16 14.16 0 0 1-5.697 6.14L24.31 31a16.575 16.575 0 0 0 7.07-7.406c1.925-3.998 2.142-8.49.61-12.648" />
  <path class="path" transform="rotate(360 16.5 16.5)" fill="#1D5480" fill-rule="evenodd" d="M15.994 30.587c-5.604 0-10.872-3.623-12.876-9.43a14.725 14.725 0 0 1-.79-5.553L.053 15c-.18 2.297.093 4.668.889 6.974C3.285 28.764 9.444 33 15.995 33c.997 0 2.002-.102 3.005-.304l-.794-2.3c-.74.127-1.478.191-2.212.191" />
  <circle fill="#1D5480" fill-rule="evenodd" cx="16.5" cy="16.5" r="5.5"/>
</svg>
