<svg width="87" height="87" viewBox="0 0 87 87" xmlns="http://www.w3.org/2000/svg">
  <g fill="#FFF" fill-rule="evenodd">
    <path d="M54 43.5a10.5 10.5 0 1 1-21 0 10.5 10.5 0 0 1 21 0"/>
    <path d="M44 21.07A22.96 22.96 0 0 0 21.07 44 22.96 22.96 0 0 0 44 66.93 22.96 22.96 0 0 0 66.93 44 22.96 22.96 0 0 0 44 21.07M44 73c-16 0-29-13-29-29 0-15.99 13-29 29-29 15.99 0 29 13.01 29 29 0 16-13.01 29-29 29"/>
    <path d="M43.5 6.07A37.47 37.47 0 0 0 6.07 43.5 37.47 37.47 0 0 0 43.5 80.93 37.47 37.47 0 0 0 80.93 43.5 37.47 37.47 0 0 0 43.5 6.07m0 80.93A43.55 43.55 0 0 1 0 43.5 43.55 43.55 0 0 1 43.5 0 43.55 43.55 0 0 1 87 43.5 43.55 43.55 0 0 1 43.5 87"/>
  </g>
</svg>
