<svg width="100" height="66" viewBox="0 0 100 66" xmlns="http://www.w3.org/2000/svg">
  <path d="M66.84 61.8a28.8 28.8 0 0 1-12.96-3.07A32.9 32.9 0 0 0 66.31 33c0-10.4-4.86-19.68-12.43-25.73A28.9 28.9 0 0 1 95.78 33a28.9 28.9 0 0 1-28.94 28.8M62.1 33c0 9.63-4.78 18.16-12.1 23.39A28.73 28.73 0 0 1 37.92 33c0-9.63 4.78-18.16 12.09-23.39A28.73 28.73 0 0 1 62.09 33M33.16 61.8A28.9 28.9 0 0 1 4.22 33a28.9 28.9 0 0 1 41.9-25.73A32.89 32.89 0 0 0 33.69 33a32.9 32.9 0 0 0 12.43 25.73 28.84 28.84 0 0 1-12.96 3.07M66.84 0A33 33 0 0 0 50 4.6 33.06 33.06 0 0 0 33.16 0 33.12 33.12 0 0 0 0 33c0 18.2 14.87 33 33.16 33A33 33 0 0 0 50 61.4 33.06 33.06 0 0 0 66.84 66 33.12 33.12 0 0 0 100 33c0-18.2-14.87-33-33.16-33" fill="#FFF" fill-rule="evenodd"/>
</svg>
