<svg xmlns="http://www.w3.org/2000/svg">
  <g fill-rule="evenodd">
    <path d="M17.5 32c-.28 0-.5-.27-.5-.6V17.6c0-.34.22-.61.5-.61s.5.27.5.61v13.8c0 .34-.22.61-.5.61"/>
    <path d="M22.43 22a.6.6 0 0 1-.4-.17l-4.53-4.46-4.52 4.46a.58.58 0 0 1-.81 0 .55.55 0 0 1 0-.79l4.93-4.87a.57.57 0 0 1 .8 0l4.93 4.87c.23.22.23.57 0 .8a.57.57 0 0 1-.4.16"/>
    <path d="M32.74 44H4.26A3.24 3.24 0 0 1 1 40.77V4.23A3.25 3.25 0 0 1 4.26 1h20.68a.65.65 0 1 1 0 1.3H4.26c-1.08 0-1.96.86-1.96 1.93v36.54c0 1.07.88 1.94 1.96 1.94h28.48c1.08 0 1.96-.87 1.96-1.94V12.24a.65.65 0 0 1 1.3 0v28.54A3.24 3.24 0 0 1 32.74 44"/>
    <path d="M35.33 12H24.67c-.37 0-.67-.28-.67-.61V1.62c0-.34.3-.62.67-.62.37 0 .67.28.67.62v9.15h9.99c.37 0 .67.28.67.62 0 .33-.3.61-.67.61"/>
    <path d="M35.39 12a.6.6 0 0 1-.44-.18l-9.78-9.8a.6.6 0 0 1 .01-.85.63.63 0 0 1 .87 0l9.78 9.81a.6.6 0 0 1-.44 1.02"/>
  </g>
</svg>
