<svg width="108" height="131" viewBox="0 0 108 131" xmlns="http://www.w3.org/2000/svg">
  <g fill-rule="evenodd">
    <path d="M53.68 77.87c-.25 0-.5-.07-.73-.18L1.57 51.97a1.6 1.6 0 0 1-.9-1.45c0-.62.35-1.17.9-1.46l40.96-20.5a1.62 1.62 0 0 1 1.44 2.9L5.91 50.53l47.77 23.9 47.75-23.9-37.55-18.8a1.62 1.62 0 0 1-.73-2.17 1.63 1.63 0 0 1 2.18-.73l40.45 20.24a1.64 1.64 0 0 1 0 2.9L54.4 77.7c-.22.1-.47.18-.71.18m-.01 51.81c-.25 0-.5-.05-.73-.17L1.57 103.37a1.66 1.66 0 0 1-.73-2.21 1.6 1.6 0 0 1 2.17-.74l50.65 25.77 50.67-25.77a1.6 1.6 0 0 1 2.17.74c.4.8.08 1.8-.73 2.2L54.4 129.53c-.22.12-.47.17-.71.17"/>
    <path d="M104.9 103.78c-.97 0-1.76-.72-1.76-1.6V51.2c0-.88.79-1.6 1.76-1.6.98 0 1.77.72 1.77 1.6v50.99c0 .87-.79 1.59-1.77 1.59m-51.81 25.91c-.98 0-1.78-.72-1.78-1.59v-51c0-.87.8-1.59 1.78-1.59.97 0 1.76.72 1.76 1.59v51c0 .89-.8 1.59-1.76 1.59M2.45 103.78c-.99 0-1.78-.72-1.78-1.6V51.2c0-.88.79-1.6 1.78-1.6.96 0 1.75.72 1.75 1.6v50.99c0 .87-.79 1.59-1.75 1.59m50.64-60.07c-.98 0-1.78-.72-1.78-1.59V2.92c0-.88.8-1.6 1.78-1.6.97 0 1.76.72 1.76 1.6v39.2c0 .87-.8 1.6-1.76 1.6"/>
    <path d="M68.57 20.16c-.42 0-.83-.16-1.14-.48L53.1 5.2 38.73 19.68c-.62.63-1.64.63-2.26 0a1.63 1.63 0 0 1 0-2.28L51.95 1.79a1.57 1.57 0 0 1 2.26 0l15.48 15.6c.62.64.62 1.66 0 2.3-.3.3-.71.47-1.12.47"/>
  </g>
</svg>
