<svg width="86" height="84" viewBox="0 0 86 84" xmlns="http://www.w3.org/2000/svg">
  <g fill-rule="evenodd">
    <path d="M6.24 42.2A35.15 35.15 0 0 1 14 19.6L9.8 15A41.12 41.12 0 0 0 .02 43l6.22-.8zm68.9-27.98A43 43 0 0 0 45.5.07 43.23 43.23 0 0 0 20 6.55l4.2 4.65a36.81 36.81 0 0 1 20.94-5 36.78 36.78 0 0 1 25.34 12.08 35.63 35.63 0 0 1 9.23 26.19 35.61 35.61 0 0 1-7.51 19.88L76.4 69a41.58 41.58 0 0 0 9.52-24.17 41.64 41.64 0 0 0-10.78-30.61M60.83 72.5A36.62 36.62 0 0 1 7.23 53L1 53.83A42.8 42.8 0 0 0 65 77.2l-4.17-4.7z" />
    <path d="M27 43l26-18v36z"/>
  </g>
</svg>
