<svg xmlns="http://www.w3.org/2000/svg">
  <g fill-rule="evenodd">
    <path d="M32.66 21c-.07 0-.14 0-.2-.03a.66.66 0 0 1-.42-.84c.44-1.37.66-2.8.66-4.25 0-7.47-5.92-13.55-13.2-13.55-7.28 0-13.2 6.08-13.2 13.55 0 .37-.3.67-.65.67a.66.66 0 0 1-.65-.67C5 7.68 11.5 1 19.5 1S34 7.68 34 15.88c0 1.6-.25 3.17-.73 4.66a.65.65 0 0 1-.61.46"/>
    <path d="M16.17 44a.65.65 0 0 1-.47-.2.64.64 0 0 1-.18-.51c.15-1.64-1.27-5.68-2.01-7.56H7.08a2.3 2.3 0 0 1-2.31-2.3V26.7H1.65a.65.65 0 0 1-.51-1.06c.75-.92 3.66-8.09 3.66-9.98a.65.65 0 0 1 1.3 0c0 1.76-2.05 7.25-3.31 9.74h2.63c.36 0 .65.29.65.65v7.4a1 1 0 0 0 1 1h6.88c.27 0 .5.15.61.4.23.56 2.08 5.16 2.26 7.8 6.27-.6 13.96-4.02 15.77-5.53-1.93-5.49-2.11-11.14-.58-17.27a.65.65 0 0 1 .8-.47c.34.08.56.44.47.79-1.51 6.01-1.29 11.54.68 16.9.08.22.04.47-.12.65-1.55 1.8-10.68 5.85-17.62 6.29h-.05z"/>
  </g>
</svg>
