<svg width="126" height="75" viewBox="0 0 126 75" xmlns="http://www.w3.org/2000/svg">
  <g fill-rule="evenodd">
    <path d="M3.95 70.62h117.23V4.4H3.95v66.22zM122.88 74H2.25a1.7 1.7 0 0 1-1.69-1.69V2.7c0-.94.77-1.7 1.69-1.7h120.63c.92 0 1.68.76 1.68 1.7v69.6c0 .94-.76 1.69-1.68 1.69z"/>
    <path d="M122.82 19.25a16.5 16.5 0 0 1-16.46-16.5 1.74 1.74 0 1 1 3.49 0 13 13 0 0 0 12.97 13 1.75 1.75 0 0 1 0 3.5M108.12 74c-.97 0-1.76-.77-1.76-1.74a16.5 16.5 0 0 1 16.47-16.51 1.75 1.75 0 0 1 0 3.51 12.99 12.99 0 0 0-12.97 13c0 .97-.77 1.74-1.74 1.74M2.3 19.25a1.75 1.75 0 0 1 0-3.5 13 13 0 0 0 12.97-13 1.75 1.75 0 0 1 3.5 0c0 9.1-7.39 16.5-16.47 16.5M17.01 74c-.96 0-1.74-.77-1.74-1.74a13 13 0 0 0-12.97-13 1.76 1.76 0 0 1 0-3.51 16.5 16.5 0 0 1 16.47 16.5c0 .98-.79 1.75-1.76 1.75M62.7 55.75c-4.53 0-10.2-2.92-12.6-4.89a1.75 1.75 0 0 1-.26-2.4c.56-.73 1.6-.86 2.33-.26 2.06 1.68 6.98 4.13 10.52 4.13 3.44 0 8.52-1.9 8.52-5.96 0-3.64-3.46-5.07-7.98-6.57l-1.34-.45c-3.57-1.25-11.01-3.83-11.01-10.05 0-6.01 4.51-10.05 11.26-10.05 6.79 0 11.05 3.6 11.22 3.75.72.6.81 1.69.22 2.4a1.6 1.6 0 0 1-2.33.23 15.04 15.04 0 0 0-9.1-2.96c-4.93 0-7.98 2.53-7.98 6.63 0 3.32 4.44 5.3 8.77 6.82l1.29.43c4.1 1.35 10.28 3.4 10.28 9.82.02 6.46-6.91 9.38-11.82 9.38"/>
    <path d="M62.57 60.31a1.7 1.7 0 0 1-1.71-1.7V16.37a1.7 1.7 0 1 1 3.41 0V58.6a1.7 1.7 0 0 1-1.7 1.71"/>
  </g>
</svg>
