<svg xmlns="http://www.w3.org/2000/svg">
  <g fill-rule="evenodd">
    <path d="M13.48 21.37L20 23.2c.14.04.26.13.33.27a.5.5 0 0 1 .02.41L15.57 36.9l12.94-14.95-6.5-1.84a.52.52 0 0 1-.33-.25.5.5 0 0 1-.05-.4l3.4-11.7-11.55 13.6zM14.06 40a.53.53 0 0 1-.5-.7l5.6-15.23-6.77-1.9a.54.54 0 0 1-.37-.36.53.53 0 0 1 .1-.5L25.85 5.2c.17-.2.44-.24.66-.13.23.12.34.37.26.62l-3.95 13.57 6.8 1.92c.18.05.31.18.37.35.05.18.01.37-.1.5l-15.41 17.8a.53.53 0 0 1-.4.18z"/>
    <path d="M20.36 43c-8.9 0-16.66-5.7-19.33-14.16a.64.64 0 0 1 1.23-.4 18.9 18.9 0 0 0 18.1 13.27c3.05 0 5.98-.71 8.7-2.12a.64.64 0 1 1 .6 1.14 20.02 20.02 0 0 1-9.3 2.27M2.64 14a.6.6 0 0 1-.28-.07.7.7 0 0 1-.3-.9 20.53 20.53 0 0 1 12.11-11c.34-.1.7.09.8.44.1.36-.08.74-.42.85a19.23 19.23 0 0 0-11.34 10.3.64.64 0 0 1-.57.38m32.32 22a.62.62 0 0 1-.44-.18.67.67 0 0 1-.02-.93 19.5 19.5 0 0 0 5.24-13.36C39.74 11 31.78 2.57 21.62 2.3a.65.65 0 0 1-.62-.66c0-.37.27-.64.65-.64C32.5 1.28 41 10.3 41 21.53c0 5.34-1.98 10.41-5.6 14.27a.62.62 0 0 1-.44.2"/>
  </g>
</svg>
